<ttFont>
    <TTGlyph name=".notdef" xMin="50" yMin="-250" xMax="450" yMax="750">
      <contour>
        <pt x="50" y="-250" on="1"/>
        <pt x="450" y="-250" on="1"/>
        <pt x="450" y="750" on="1"/>
        <pt x="50" y="750" on="1"/>
      </contour>
      <contour>
        <pt x="100" y="-200" on="1"/>
        <pt x="100" y="700" on="1"/>
        <pt x="400" y="700" on="1"/>
        <pt x="400" y="-200" on="1"/>
      </contour>
    </TTGlyph>
    <TTGlyph name="Euro" xMin="27" yMin="-33" xMax="513" yMax="636">
      <contour>
        <pt x="27" y="205" on="1"/>
        <pt x="47" y="283" on="1"/>
        <pt x="113" y="283" on="1"/>
        <pt x="112" y="298" on="0"/>
        <pt x="112" y="313" on="1"/>
        <pt x="112" y="320" on="0"/>
        <pt x="112" y="326" on="1"/>
        <pt x="59" y="326" on="1"/>
        <pt x="79" y="403" on="1"/>
        <pt x="125" y="403" on="1"/>
        <pt x="147" y="473" on="0"/>
        <pt x="254" y="578" on="0"/>
        <pt x="413" y="636" on="0"/>
        <pt x="513" y="636" on="1"/>
        <pt x="513" y="499" on="1"/>
        <pt x="417" y="499" on="0"/>
        <pt x="295" y="446" on="0"/>
        <pt x="267" y="403" on="1"/>
        <pt x="476" y="403" on="1"/>
        <pt x="456" y="326" on="1"/>
        <pt x="240" y="326" on="1"/>
        <pt x="240" y="320" on="0"/>
        <pt x="240" y="313" on="1"/>
        <pt x="240" y="297" on="0"/>
        <pt x="242" y="283" on="1"/>
        <pt x="447" y="283" on="1"/>
        <pt x="427" y="205" on="1"/>
        <pt x="273" y="205" on="1"/>
        <pt x="303" y="161" on="0"/>
        <pt x="422" y="106" on="0"/>
        <pt x="513" y="104" on="1"/>
        <pt x="513" y="-33" on="1"/>
        <pt x="416" y="-33" on="0"/>
        <pt x="260" y="28" on="0"/>
        <pt x="153" y="135" on="0"/>
        <pt x="129" y="205" on="1"/>
      </contour>
    </TTGlyph>
    <TTGlyph name="arrowboth" xMin="10" yMin="20" xMax="883" yMax="536">
      <contour>
        <pt x="270" y="20" on="1"/>
        <pt x="10" y="277" on="1"/>
        <pt x="270" y="536" on="1"/>
        <pt x="367" y="445" on="1"/>
        <pt x="260" y="342" on="1"/>
        <pt x="634" y="342" on="1"/>
        <pt x="528" y="445" on="1"/>
        <pt x="625" y="536" on="1"/>
        <pt x="883" y="278" on="1"/>
        <pt x="624" y="20" on="1"/>
        <pt x="527" y="111" on="1"/>
        <pt x="633" y="214" on="1"/>
        <pt x="260" y="214" on="1"/>
        <pt x="366" y="111" on="1"/>
      </contour>
    </TTGlyph>
    <TTGlyph name="arrowdown" xMin="46" yMin="-74" xMax="600" yMax="556">
      <contour>
        <pt x="323" y="-74" on="1"/>
        <pt x="46" y="205" on="1"/>
        <pt x="137" y="301" on="1"/>
        <pt x="259" y="176" on="1"/>
        <pt x="259" y="556" on="1"/>
        <pt x="386" y="556" on="1"/>
        <pt x="386" y="174" on="1"/>
        <pt x="508" y="300" on="1"/>
        <pt x="600" y="204" on="1"/>
      </contour>
    </TTGlyph>
    <TTGlyph name="arrowleft" xMin="8" yMin="10" xMax="639" yMax="563">
      <contour>
        <pt x="286" y="10" on="1"/>
        <pt x="8" y="286" on="1"/>
        <pt x="287" y="563" on="1"/>
        <pt x="384" y="472" on="1"/>
        <pt x="258" y="350" on="1"/>
        <pt x="639" y="350" on="1"/>
        <pt x="639" y="222" on="1"/>
        <pt x="257" y="222" on="1"/>
        <pt x="383" y="101" on="1"/>
      </contour>
    </TTGlyph>
    <TTGlyph name="arrowright" xMin="21" yMin="10" xMax="651" yMax="563">
      <contour>
        <pt x="21" y="222" on="1"/>
        <pt x="21" y="350" on="1"/>
        <pt x="403" y="350" on="1"/>
        <pt x="276" y="472" on="1"/>
        <pt x="373" y="563" on="1"/>
        <pt x="651" y="287" on="1"/>
        <pt x="372" y="10" on="1"/>
        <pt x="276" y="101" on="1"/>
        <pt x="401" y="222" on="1"/>
      </contour>
    </TTGlyph>
    <TTGlyph name="arrowup" xMin="46" yMin="0" xMax="600" yMax="630">
      <contour>
        <pt x="259" y="0" on="1"/>
        <pt x="259" y="381" on="1"/>
        <pt x="137" y="256" on="1"/>
        <pt x="46" y="352" on="1"/>
        <pt x="322" y="630" on="1"/>
        <pt x="600" y="351" on="1"/>
        <pt x="508" y="255" on="1"/>
        <pt x="386" y="380" on="1"/>
        <pt x="386" y="0" on="1"/>
      </contour>
    </TTGlyph>
    <TTGlyph name="arrowupdn" xMin="65" yMin="-119" xMax="553" yMax="670">
      <contour>
        <pt x="310" y="-119" on="1"/>
        <pt x="65" y="127" on="1"/>
        <pt x="156" y="223" on="1"/>
        <pt x="245" y="131" on="1"/>
        <pt x="245" y="422" on="1"/>
        <pt x="156" y="328" on="1"/>
        <pt x="65" y="425" on="1"/>
        <pt x="308" y="670" on="1"/>
        <pt x="372" y="607" on="1"/>
        <pt x="373" y="607" on="1"/>
        <pt x="373" y="605" on="1"/>
        <pt x="553" y="425" on="1"/>
        <pt x="462" y="328" on="1"/>
        <pt x="373" y="420" on="1"/>
        <pt x="373" y="130" on="1"/>
        <pt x="462" y="223" on="1"/>
        <pt x="553" y="126" on="1"/>
      </contour>
    </TTGlyph>
    <TTGlyph name="asciicircum" xMin="26" yMin="298" xMax="498" yMax="614">
      <contour>
        <pt x="26" y="298" on="1"/>
        <pt x="217" y="614" on="1"/>
        <pt x="302" y="614" on="1"/>
        <pt x="498" y="298" on="1"/>
        <pt x="349" y="298" on="1"/>
        <pt x="261" y="448" on="1"/>
        <pt x="174" y="298" on="1"/>
      </contour>
    </TTGlyph>
    <TTGlyph name="asterisk" xMin="31" yMin="280" xMax="431" yMax="670">
      <contour>
        <pt x="272" y="407" on="1"/>
        <pt x="294" y="280" on="1"/>
        <pt x="169" y="280" on="1"/>
        <pt x="189" y="402" on="1"/>
        <pt x="93" y="322" on="1"/>
        <pt x="31" y="430" on="1"/>
        <pt x="154" y="475" on="1"/>
        <pt x="31" y="520" on="1"/>
        <pt x="93" y="628" on="1"/>
        <pt x="191" y="545" on="1"/>
        <pt x="169" y="670" on="1"/>
        <pt x="294" y="670" on="1"/>
        <pt x="270" y="542" on="1"/>
        <pt x="368" y="625" on="1"/>
        <pt x="431" y="517" on="1"/>
        <pt x="314" y="475" on="1"/>
        <pt x="431" y="433" on="1"/>
        <pt x="368" y="325" on="1"/>
      </contour>
    </TTGlyph>
    <TTGlyph name="backslash" xMin="38" yMin="-185" xMax="447" yMax="730">
      <contour>
        <pt x="311" y="-185" on="1"/>
        <pt x="38" y="730" on="1"/>
        <pt x="174" y="730" on="1"/>
        <pt x="447" y="-185" on="1"/>
      </contour>
    </TTGlyph>
    <TTGlyph name="bar" xMin="92" yMin="211" xMax="137" yMax="289">
      <contour>
        <pt x="137" y="289" on="1"/>
        <pt x="137" y="211" on="1"/>
        <pt x="92" y="211" on="1"/>
        <pt x="92" y="289" on="1"/>
      </contour>
    </TTGlyph>
    <TTGlyph name="braceleft" xMin="22" yMin="-237" xMax="367" yMax="737">
      <contour>
        <pt x="356" y="-237" on="1"/>
        <pt x="227" y="-237" on="0"/>
        <pt x="114" y="-118" on="0"/>
        <pt x="111" y="16" on="1"/>
        <pt x="111" y="93" on="1"/>
        <pt x="111" y="137" on="0"/>
        <pt x="69" y="181" on="0"/>
        <pt x="22" y="181" on="1"/>
        <pt x="22" y="317" on="1"/>
        <pt x="76" y="317" on="0"/>
        <pt x="111" y="358" on="0"/>
        <pt x="111" y="398" on="1"/>
        <pt x="111" y="482" on="1"/>
        <pt x="111" y="614" on="0"/>
        <pt x="225" y="737" on="0"/>
        <pt x="356" y="737" on="1"/>
        <pt x="367" y="737" on="1"/>
        <pt x="367" y="602" on="1"/>
        <pt x="293" y="602" on="0"/>
        <pt x="240" y="546" on="0"/>
        <pt x="240" y="479" on="1"/>
        <pt x="240" y="403" on="1"/>
        <pt x="240" y="371" on="0"/>
        <pt x="221" y="305" on="0"/>
        <pt x="178" y="256" on="0"/>
        <pt x="142" y="250" on="1"/>
        <pt x="196" y="242" on="0"/>
        <pt x="241" y="153" on="0"/>
        <pt x="240" y="97" on="1"/>
        <pt x="240" y="15" on="1"/>
        <pt x="239" y="-52" on="0"/>
        <pt x="292" y="-102" on="0"/>
        <pt x="367" y="-102" on="1"/>
        <pt x="367" y="-237" on="1"/>
      </contour>
    </TTGlyph>
    <TTGlyph name="braceright" xMin="26" yMin="-237" xMax="372" yMax="737">
      <contour>
        <pt x="26" y="-237" on="1"/>
        <pt x="26" y="-102" on="1"/>
        <pt x="101" y="-102" on="0"/>
        <pt x="154" y="-52" on="0"/>
        <pt x="154" y="15" on="1"/>
        <pt x="153" y="97" on="1"/>
        <pt x="153" y="153" on="0"/>
        <pt x="197" y="242" on="0"/>
        <pt x="252" y="250" on="1"/>
        <pt x="215" y="256" on="0"/>
        <pt x="172" y="305" on="0"/>
        <pt x="154" y="371" on="0"/>
        <pt x="154" y="403" on="1"/>
        <pt x="154" y="479" on="1"/>
        <pt x="154" y="546" on="0"/>
        <pt x="100" y="602" on="0"/>
        <pt x="26" y="602" on="1"/>
        <pt x="26" y="737" on="1"/>
        <pt x="37" y="737" on="1"/>
        <pt x="169" y="737" on="0"/>
        <pt x="283" y="614" on="0"/>
        <pt x="283" y="482" on="1"/>
        <pt x="283" y="398" on="1"/>
        <pt x="283" y="358" on="0"/>
        <pt x="318" y="317" on="0"/>
        <pt x="372" y="317" on="1"/>
        <pt x="372" y="181" on="1"/>
        <pt x="325" y="181" on="0"/>
        <pt x="283" y="137" on="0"/>
        <pt x="283" y="93" on="1"/>
        <pt x="283" y="16" on="1"/>
        <pt x="280" y="-118" on="0"/>
        <pt x="166" y="-237" on="0"/>
        <pt x="37" y="-237" on="1"/>
      </contour>
    </TTGlyph>
    <TTGlyph name="bracketleft" xMin="32" yMin="-237" xMax="265" yMax="737">
      <contour>
        <pt x="32" y="-237" on="1"/>
        <pt x="32" y="737" on="1"/>
        <pt x="265" y="737" on="1"/>
        <pt x="265" y="600" on="1"/>
        <pt x="161" y="600" on="1"/>
        <pt x="161" y="-100" on="1"/>
        <pt x="265" y="-100" on="1"/>
        <pt x="265" y="-237" on="1"/>
      </contour>
    </TTGlyph>
    <TTGlyph name="bracketright" xMin="26" yMin="-237" xMax="260" yMax="737">
      <contour>
        <pt x="26" y="-237" on="1"/>
        <pt x="26" y="-101" on="1"/>
        <pt x="131" y="-101" on="1"/>
        <pt x="131" y="600" on="1"/>
        <pt x="26" y="600" on="1"/>
        <pt x="26" y="737" on="1"/>
        <pt x="260" y="737" on="1"/>
        <pt x="260" y="-237" on="1"/>
      </contour>
    </TTGlyph>
    <TTGlyph name="bullet" xMin="36" yMin="137" xMax="311" yMax="413">
      <contour>
        <pt x="173" y="137" on="1"/>
        <pt x="114" y="137" on="0"/>
        <pt x="36" y="215" on="0"/>
        <pt x="36" y="274" on="1"/>
        <pt x="36" y="314" on="0"/>
        <pt x="72" y="376" on="0"/>
        <pt x="134" y="413" on="0"/>
        <pt x="173" y="413" on="1"/>
        <pt x="213" y="413" on="0"/>
        <pt x="275" y="376" on="0"/>
        <pt x="311" y="314" on="0"/>
        <pt x="311" y="274" on="1"/>
        <pt x="311" y="215" on="0"/>
        <pt x="233" y="137" on="0"/>
      </contour>
    </TTGlyph>
    <TTGlyph name="colon" xMin="28" yMin="-9" xMax="199" yMax="476">
      <contour>
        <pt x="113" y="305" on="1"/>
        <pt x="75" y="305" on="0"/>
        <pt x="28" y="353" on="0"/>
        <pt x="28" y="390" on="1"/>
        <pt x="28" y="428" on="0"/>
        <pt x="76" y="476" on="0"/>
        <pt x="113" y="476" on="1"/>
        <pt x="151" y="476" on="0"/>
        <pt x="199" y="428" on="0"/>
        <pt x="199" y="390" on="1"/>
        <pt x="199" y="353" on="0"/>
        <pt x="151" y="305" on="0"/>
      </contour>
      <contour>
        <pt x="113" y="-9" on="1"/>
        <pt x="75" y="-9" on="0"/>
        <pt x="28" y="39" on="0"/>
        <pt x="28" y="76" on="1"/>
        <pt x="28" y="114" on="0"/>
        <pt x="76" y="162" on="0"/>
        <pt x="113" y="162" on="1"/>
        <pt x="151" y="162" on="0"/>
        <pt x="199" y="114" on="0"/>
        <pt x="199" y="76" on="1"/>
        <pt x="199" y="39" on="0"/>
        <pt x="151" y="-9" on="0"/>
      </contour>
    </TTGlyph>
    <TTGlyph name="comma" xMin="15" yMin="-116" xMax="201" yMax="144">
      <contour>
        <pt x="15" y="-116" on="1"/>
        <pt x="58" y="144" on="1"/>
        <pt x="201" y="144" on="1"/>
        <pt x="128" y="-116" on="1"/>
      </contour>
    </TTGlyph>
    <TTGlyph name="copyright" xMin="33" yMin="-109" xMax="815" yMax="679">
      <contour>
        <pt x="424" y="-109" on="1"/>
        <pt x="343" y="-109" on="0"/>
        <pt x="202" y="-48" on="0"/>
        <pt x="94" y="61" on="0"/>
        <pt x="33" y="203" on="0"/>
        <pt x="33" y="285" on="1"/>
        <pt x="33" y="367" on="0"/>
        <pt x="94" y="509" on="0"/>
        <pt x="202" y="618" on="0"/>
        <pt x="343" y="679" on="0"/>
        <pt x="424" y="679" on="1"/>
        <pt x="505" y="679" on="0"/>
        <pt x="646" y="618" on="0"/>
        <pt x="754" y="509" on="0"/>
        <pt x="815" y="367" on="0"/>
        <pt x="815" y="285" on="1"/>
        <pt x="815" y="203" on="0"/>
        <pt x="754" y="61" on="0"/>
        <pt x="646" y="-48" on="0"/>
        <pt x="505" y="-109" on="0"/>
      </contour>
      <contour>
        <pt x="424" y="-4" on="1"/>
        <pt x="485" y="-4" on="0"/>
        <pt x="591" y="41" on="0"/>
        <pt x="670" y="120" on="0"/>
        <pt x="715" y="225" on="0"/>
        <pt x="715" y="285" on="1"/>
        <pt x="715" y="345" on="0"/>
        <pt x="670" y="450" on="0"/>
        <pt x="591" y="529" on="0"/>
        <pt x="485" y="574" on="0"/>
        <pt x="424" y="574" on="1"/>
        <pt x="363" y="574" on="0"/>
        <pt x="257" y="529" on="0"/>
        <pt x="178" y="450" on="0"/>
        <pt x="133" y="345" on="0"/>
        <pt x="133" y="285" on="1"/>
        <pt x="133" y="225" on="0"/>
        <pt x="178" y="120" on="0"/>
        <pt x="257" y="41" on="0"/>
        <pt x="363" y="-4" on="0"/>
      </contour>
      <contour>
        <pt x="427" y="74" on="1"/>
        <pt x="368" y="74" on="0"/>
        <pt x="273" y="131" on="0"/>
        <pt x="218" y="226" on="0"/>
        <pt x="218" y="285" on="1"/>
        <pt x="218" y="343" on="0"/>
        <pt x="274" y="439" on="0"/>
        <pt x="368" y="496" on="0"/>
        <pt x="427" y="496" on="1"/>
        <pt x="485" y="496" on="0"/>
        <pt x="582" y="437" on="0"/>
        <pt x="608" y="390" on="1"/>
        <pt x="516" y="333" on="1"/>
        <pt x="506" y="355" on="0"/>
        <pt x="456" y="386" on="0"/>
        <pt x="427" y="386" on="1"/>
        <pt x="383" y="386" on="0"/>
        <pt x="323" y="327" on="0"/>
        <pt x="323" y="285" on="1"/>
        <pt x="323" y="243" on="0"/>
        <pt x="383" y="184" on="0"/>
        <pt x="427" y="184" on="1"/>
        <pt x="458" y="184" on="0"/>
        <pt x="507" y="217" on="0"/>
        <pt x="518" y="241" on="1"/>
        <pt x="611" y="187" on="1"/>
        <pt x="585" y="137" on="0"/>
        <pt x="487" y="74" on="0"/>
      </contour>
    </TTGlyph>
    <TTGlyph name="degree" xMin="55" yMin="374" xMax="385" yMax="696">
      <contour>
        <pt x="220" y="374" on="1"/>
        <pt x="175" y="374" on="0"/>
        <pt x="100" y="418" on="0"/>
        <pt x="55" y="491" on="0"/>
        <pt x="55" y="536" on="1"/>
        <pt x="55" y="581" on="0"/>
        <pt x="100" y="653" on="0"/>
        <pt x="175" y="696" on="0"/>
        <pt x="220" y="696" on="1"/>
        <pt x="266" y="696" on="0"/>
        <pt x="341" y="653" on="0"/>
        <pt x="385" y="581" on="0"/>
        <pt x="385" y="536" on="1"/>
        <pt x="385" y="491" on="0"/>
        <pt x="341" y="418" on="0"/>
        <pt x="266" y="374" on="0"/>
      </contour>
      <contour>
        <pt x="221" y="475" on="1"/>
        <pt x="243" y="475" on="0"/>
        <pt x="276" y="510" on="0"/>
        <pt x="276" y="535" on="1"/>
        <pt x="276" y="560" on="0"/>
        <pt x="243" y="595" on="0"/>
        <pt x="221" y="595" on="1"/>
        <pt x="198" y="595" on="0"/>
        <pt x="164" y="560" on="0"/>
        <pt x="164" y="535" on="1"/>
        <pt x="164" y="511" on="0"/>
        <pt x="198" y="475" on="0"/>
      </contour>
    </TTGlyph>
    <TTGlyph name="divide" xMin="34" yMin="39" xMax="436" yMax="502">
      <contour>
        <pt x="234" y="352" on="1"/>
        <pt x="201" y="352" on="0"/>
        <pt x="159" y="394" on="0"/>
        <pt x="159" y="426" on="1"/>
        <pt x="159" y="459" on="0"/>
        <pt x="202" y="502" on="0"/>
        <pt x="234" y="502" on="1"/>
        <pt x="267" y="502" on="0"/>
        <pt x="309" y="459" on="0"/>
        <pt x="309" y="426" on="1"/>
        <pt x="309" y="394" on="0"/>
        <pt x="267" y="352" on="0"/>
      </contour>
      <contour>
        <pt x="34" y="232" on="1"/>
        <pt x="34" y="310" on="1"/>
        <pt x="436" y="310" on="1"/>
        <pt x="436" y="232" on="1"/>
      </contour>
      <contour>
        <pt x="234" y="39" on="1"/>
        <pt x="201" y="39" on="0"/>
        <pt x="159" y="82" on="0"/>
        <pt x="159" y="114" on="1"/>
        <pt x="159" y="147" on="0"/>
        <pt x="202" y="189" on="0"/>
        <pt x="234" y="189" on="1"/>
        <pt x="267" y="189" on="0"/>
        <pt x="309" y="147" on="0"/>
        <pt x="309" y="114" on="1"/>
        <pt x="309" y="82" on="0"/>
        <pt x="267" y="39" on="0"/>
      </contour>
    </TTGlyph>
    <TTGlyph name="dollar" xMin="51" yMin="-101" xMax="595" yMax="730">
      <contour>
        <pt x="261" y="-101" on="1"/>
        <pt x="261" y="-16" on="1"/>
        <pt x="203" y="-9" on="0"/>
        <pt x="107" y="29" on="0"/>
        <pt x="64" y="59" on="1"/>
        <pt x="96" y="185" on="1"/>
        <pt x="130" y="160" on="0"/>
        <pt x="214" y="127" on="0"/>
        <pt x="261" y="120" on="1"/>
        <pt x="261" y="259" on="1"/>
        <pt x="203" y="275" on="0"/>
        <pt x="108" y="328" on="0"/>
        <pt x="51" y="406" on="0"/>
        <pt x="51" y="458" on="1"/>
        <pt x="51" y="525" on="0"/>
        <pt x="165" y="621" on="0"/>
        <pt x="261" y="633" on="1"/>
        <pt x="261" y="730" on="1"/>
        <pt x="391" y="730" on="1"/>
        <pt x="391" y="629" on="1"/>
        <pt x="439" y="619" on="0"/>
        <pt x="524" y="578" on="0"/>
        <pt x="565" y="555" on="1"/>
        <pt x="531" y="433" on="1"/>
        <pt x="490" y="452" on="0"/>
        <pt x="423" y="482" on="0"/>
        <pt x="391" y="491" on="1"/>
        <pt x="391" y="360" on="1"/>
        <pt x="447" y="343" on="0"/>
        <pt x="540" y="291" on="0"/>
        <pt x="595" y="215" on="0"/>
        <pt x="595" y="162" on="1"/>
        <pt x="595" y="122" on="0"/>
        <pt x="545" y="49" on="0"/>
        <pt x="453" y="-5" on="0"/>
        <pt x="391" y="-15" on="1"/>
        <pt x="391" y="-101" on="1"/>
      </contour>
      <contour>
        <pt x="177" y="447" on="1"/>
        <pt x="177" y="430" on="0"/>
        <pt x="226" y="405" on="0"/>
        <pt x="261" y="395" on="1"/>
        <pt x="261" y="496" on="1"/>
        <pt x="222" y="489" on="0"/>
        <pt x="177" y="460" on="0"/>
      </contour>
      <contour>
        <pt x="469" y="170" on="1"/>
        <pt x="469" y="204" on="0"/>
        <pt x="391" y="228" on="1"/>
        <pt x="391" y="121" on="1"/>
        <pt x="428" y="128" on="0"/>
        <pt x="469" y="156" on="0"/>
      </contour>
    </TTGlyph>
    <TTGlyph name="eight" xMin="30" yMin="-21" xMax="535" yMax="623">
      <contour>
        <pt x="282" y="-21" on="1"/>
        <pt x="205" y="-21" on="0"/>
        <pt x="92" y="31" on="0"/>
        <pt x="30" y="122" on="0"/>
        <pt x="30" y="181" on="1"/>
        <pt x="30" y="232" on="0"/>
        <pt x="87" y="316" on="0"/>
        <pt x="134" y="335" on="1"/>
        <pt x="102" y="350" on="0"/>
        <pt x="67" y="415" on="0"/>
        <pt x="67" y="450" on="1"/>
        <pt x="67" y="494" on="0"/>
        <pt x="124" y="573" on="0"/>
        <pt x="221" y="623" on="0"/>
        <pt x="282" y="623" on="1"/>
        <pt x="344" y="623" on="0"/>
        <pt x="441" y="573" on="0"/>
        <pt x="497" y="494" on="0"/>
        <pt x="497" y="450" on="1"/>
        <pt x="497" y="415" on="0"/>
        <pt x="462" y="350" on="0"/>
        <pt x="431" y="335" on="1"/>
        <pt x="478" y="316" on="0"/>
        <pt x="535" y="232" on="0"/>
        <pt x="535" y="181" on="1"/>
        <pt x="535" y="122" on="0"/>
        <pt x="473" y="31" on="0"/>
        <pt x="360" y="-21" on="0"/>
      </contour>
      <contour>
        <pt x="282" y="374" on="1"/>
        <pt x="318" y="374" on="0"/>
        <pt x="360" y="412" on="0"/>
        <pt x="360" y="440" on="1"/>
        <pt x="360" y="462" on="0"/>
        <pt x="316" y="495" on="0"/>
        <pt x="282" y="495" on="1"/>
        <pt x="249" y="495" on="0"/>
        <pt x="204" y="462" on="0"/>
        <pt x="204" y="440" on="1"/>
        <pt x="204" y="412" on="0"/>
        <pt x="247" y="374" on="0"/>
      </contour>
      <contour>
        <pt x="282" y="107" on="1"/>
        <pt x="334" y="107" on="0"/>
        <pt x="398" y="161" on="0"/>
        <pt x="398" y="195" on="1"/>
        <pt x="398" y="221" on="0"/>
        <pt x="363" y="262" on="0"/>
        <pt x="310" y="285" on="0"/>
        <pt x="282" y="285" on="1"/>
        <pt x="255" y="285" on="0"/>
        <pt x="202" y="262" on="0"/>
        <pt x="167" y="221" on="0"/>
        <pt x="167" y="195" on="1"/>
        <pt x="167" y="161" on="0"/>
        <pt x="231" y="107" on="0"/>
      </contour>
    </TTGlyph>
    <TTGlyph name="emdash" xMin="38" yMin="210" xMax="684" yMax="325">
      <contour>
        <pt x="38" y="210" on="1"/>
        <pt x="38" y="325" on="1"/>
        <pt x="684" y="325" on="1"/>
        <pt x="684" y="210" on="1"/>
      </contour>
    </TTGlyph>
    <TTGlyph name="endash" xMin="38" yMin="210" xMax="485" yMax="325">
      <contour>
        <pt x="38" y="210" on="1"/>
        <pt x="38" y="325" on="1"/>
        <pt x="485" y="325" on="1"/>
        <pt x="485" y="210" on="1"/>
      </contour>
    </TTGlyph>
    <TTGlyph name="equal" xMin="34" yMin="125" xMax="447" yMax="426">
      <contour>
        <pt x="34" y="311" on="1"/>
        <pt x="34" y="426" on="1"/>
        <pt x="447" y="426" on="1"/>
        <pt x="447" y="311" on="1"/>
      </contour>
      <contour>
        <pt x="34" y="125" on="1"/>
        <pt x="34" y="240" on="1"/>
        <pt x="447" y="240" on="1"/>
        <pt x="447" y="125" on="1"/>
      </contour>
    </TTGlyph>
    <TTGlyph name="exclam" xMin="55" yMin="10" xMax="188" yMax="599">
      <contour>
        <pt x="74" y="206" on="1"/>
        <pt x="67" y="284" on="0"/>
        <pt x="57" y="424" on="0"/>
        <pt x="57" y="482" on="1"/>
        <pt x="57" y="599" on="1"/>
        <pt x="186" y="599" on="1"/>
        <pt x="186" y="482" on="1"/>
        <pt x="186" y="424" on="0"/>
        <pt x="176" y="284" on="0"/>
        <pt x="169" y="206" on="1"/>
      </contour>
      <contour>
        <pt x="88" y="24" on="1"/>
        <pt x="65" y="39" on="0"/>
        <pt x="55" y="86" on="0"/>
        <pt x="69" y="109" on="1"/>
        <pt x="84" y="133" on="0"/>
        <pt x="132" y="143" on="0"/>
        <pt x="155" y="129" on="1"/>
        <pt x="178" y="115" on="0"/>
        <pt x="188" y="66" on="0"/>
        <pt x="174" y="43" on="1"/>
        <pt x="159" y="20" on="0"/>
        <pt x="112" y="10" on="0"/>
      </contour>
    </TTGlyph>
    <TTGlyph name="five" xMin="31" yMin="-19" xMax="506" yMax="601">
      <contour>
        <pt x="266" y="-19" on="1"/>
        <pt x="202" y="-19" on="0"/>
        <pt x="86" y="7" on="0"/>
        <pt x="31" y="26" on="1"/>
        <pt x="76" y="156" on="1"/>
        <pt x="131" y="142" on="0"/>
        <pt x="228" y="118" on="0"/>
        <pt x="266" y="118" on="1"/>
        <pt x="317" y="118" on="0"/>
        <pt x="379" y="162" on="0"/>
        <pt x="379" y="200" on="1"/>
        <pt x="379" y="240" on="0"/>
        <pt x="315" y="276" on="0"/>
        <pt x="262" y="276" on="1"/>
        <pt x="234" y="276" on="0"/>
        <pt x="180" y="272" on="0"/>
        <pt x="110" y="263" on="0"/>
        <pt x="58" y="255" on="1"/>
        <pt x="68" y="601" on="1"/>
        <pt x="457" y="601" on="1"/>
        <pt x="457" y="464" on="1"/>
        <pt x="186" y="464" on="1"/>
        <pt x="183" y="374" on="1"/>
        <pt x="208" y="376" on="0"/>
        <pt x="250" y="380" on="0"/>
        <pt x="262" y="380" on="1"/>
        <pt x="388" y="380" on="0"/>
        <pt x="506" y="282" on="0"/>
        <pt x="506" y="194" on="1"/>
        <pt x="506" y="127" on="0"/>
        <pt x="444" y="32" on="0"/>
        <pt x="335" y="-19" on="0"/>
      </contour>
    </TTGlyph>
    <TTGlyph name="four" xMin="29" yMin="0" xMax="504" yMax="601">
      <contour>
        <pt x="333" y="0" on="1"/>
        <pt x="333" y="108" on="1"/>
        <pt x="30" y="107" on="1"/>
        <pt x="29" y="237" on="1"/>
        <pt x="310" y="601" on="1"/>
        <pt x="461" y="601" on="1"/>
        <pt x="461" y="245" on="1"/>
        <pt x="504" y="245" on="1"/>
        <pt x="504" y="108" on="1"/>
        <pt x="461" y="108" on="1"/>
        <pt x="461" y="0" on="1"/>
      </contour>
      <contour>
        <pt x="333" y="430" on="1"/>
        <pt x="182" y="244" on="1"/>
        <pt x="333" y="245" on="1"/>
      </contour>
    </TTGlyph>
    <TTGlyph name="greater" xMin="35" yMin="46" xMax="500" yMax="544">
      <contour>
        <pt x="73" y="46" on="1"/>
        <pt x="35" y="170" on="1"/>
        <pt x="329" y="297" on="1"/>
        <pt x="35" y="419" on="1"/>
        <pt x="73" y="544" on="1"/>
        <pt x="500" y="348" on="1"/>
        <pt x="500" y="247" on="1"/>
      </contour>
    </TTGlyph>
    <TTGlyph name="hyphen" xMin="43" yMin="210" xMax="408" yMax="325">
      <contour>
        <pt x="43" y="325" on="1"/>
        <pt x="408" y="325" on="1"/>
        <pt x="408" y="210" on="1"/>
        <pt x="43" y="210" on="1"/>
      </contour>
    </TTGlyph>
    <TTGlyph name="less" xMin="35" yMin="46" xMax="500" yMax="544">
      <contour>
        <pt x="461" y="46" on="1"/>
        <pt x="35" y="247" on="1"/>
        <pt x="35" y="348" on="1"/>
        <pt x="461" y="544" on="1"/>
        <pt x="499" y="419" on="1"/>
        <pt x="205" y="297" on="1"/>
        <pt x="500" y="170" on="1"/>
      </contour>
    </TTGlyph>
    <TTGlyph name="minus" xMin="39" yMin="210" xMax="436" yMax="326">
      <contour>
        <pt x="39" y="247" on="1"/>
        <pt x="234" y="326" on="1"/>
        <pt x="436" y="289" on="1"/>
        <pt x="241" y="210" on="1"/>
      </contour>
    </TTGlyph>
    <TTGlyph name="multiply" xMin="43" yMin="60" xMax="448" yMax="471">
      <contour>
        <pt x="129" y="60" on="1"/>
        <pt x="43" y="153" on="1"/>
        <pt x="155" y="265" on="1"/>
        <pt x="43" y="378" on="1"/>
        <pt x="129" y="471" on="1"/>
        <pt x="245" y="355" on="1"/>
        <pt x="361" y="471" on="1"/>
        <pt x="448" y="377" on="1"/>
        <pt x="335" y="265" on="1"/>
        <pt x="448" y="154" on="1"/>
        <pt x="361" y="60" on="1"/>
        <pt x="245" y="175" on="1"/>
      </contour>
    </TTGlyph>
    <TTGlyph name="nine" xMin="29" yMin="-39" xMax="509" yMax="627">
      <contour>
        <pt x="263" y="-39" on="1"/>
        <pt x="168" y="27" on="1"/>
        <pt x="200" y="62" on="0"/>
        <pt x="268" y="136" on="0"/>
        <pt x="297" y="177" on="1"/>
        <pt x="283" y="176" on="0"/>
        <pt x="269" y="176" on="1"/>
        <pt x="202" y="176" on="0"/>
        <pt x="93" y="232" on="0"/>
        <pt x="29" y="332" on="0"/>
        <pt x="29" y="396" on="1"/>
        <pt x="29" y="459" on="0"/>
        <pt x="90" y="564" on="0"/>
        <pt x="197" y="627" on="0"/>
        <pt x="265" y="627" on="1"/>
        <pt x="333" y="627" on="0"/>
        <pt x="443" y="566" on="0"/>
        <pt x="509" y="457" on="0"/>
        <pt x="509" y="385" on="1"/>
        <pt x="509" y="384" on="0"/>
        <pt x="509" y="383" on="1"/>
        <pt x="508" y="332" on="0"/>
        <pt x="466" y="222" on="0"/>
        <pt x="396" y="112" on="0"/>
        <pt x="309" y="7" on="0"/>
      </contour>
      <contour>
        <pt x="269" y="313" on="1"/>
        <pt x="310" y="313" on="0"/>
        <pt x="363" y="341" on="0"/>
        <pt x="374" y="365" on="1"/>
        <pt x="375" y="375" on="0"/>
        <pt x="376" y="385" on="1"/>
        <pt x="380" y="385" on="1"/>
        <pt x="381" y="392" on="0"/>
        <pt x="381" y="399" on="1"/>
        <pt x="381" y="438" on="0"/>
        <pt x="317" y="490" on="0"/>
        <pt x="265" y="490" on="1"/>
        <pt x="215" y="490" on="0"/>
        <pt x="157" y="436" on="0"/>
        <pt x="157" y="396" on="1"/>
        <pt x="157" y="361" on="0"/>
        <pt x="221" y="313" on="0"/>
      </contour>
    </TTGlyph>
    <TTGlyph name="notequal" xMin="34" yMin="50" xMax="447" yMax="494">
      <contour>
        <pt x="76" y="50" on="1"/>
        <pt x="110" y="125" on="1"/>
        <pt x="34" y="125" on="1"/>
        <pt x="34" y="240" on="1"/>
        <pt x="161" y="240" on="1"/>
        <pt x="193" y="311" on="1"/>
        <pt x="34" y="311" on="1"/>
        <pt x="34" y="426" on="1"/>
        <pt x="244" y="426" on="1"/>
        <pt x="274" y="494" on="1"/>
        <pt x="401" y="494" on="1"/>
        <pt x="370" y="426" on="1"/>
        <pt x="447" y="426" on="1"/>
        <pt x="447" y="311" on="1"/>
        <pt x="319" y="311" on="1"/>
        <pt x="287" y="240" on="1"/>
        <pt x="447" y="240" on="1"/>
        <pt x="447" y="125" on="1"/>
        <pt x="236" y="125" on="1"/>
        <pt x="203" y="50" on="1"/>
      </contour>
    </TTGlyph>
    <TTGlyph name="numbersign" xMin="41" yMin="-54" xMax="656" yMax="635">
      <contour>
        <pt x="41" y="98" on="1"/>
        <pt x="41" y="236" on="1"/>
        <pt x="146" y="236" on="1"/>
        <pt x="162" y="343" on="1"/>
        <pt x="41" y="343" on="1"/>
        <pt x="41" y="481" on="1"/>
        <pt x="181" y="481" on="1"/>
        <pt x="203" y="635" on="1"/>
        <pt x="335" y="635" on="1"/>
        <pt x="313" y="481" on="1"/>
        <pt x="426" y="481" on="1"/>
        <pt x="448" y="635" on="1"/>
        <pt x="579" y="635" on="1"/>
        <pt x="557" y="481" on="1"/>
        <pt x="656" y="481" on="1"/>
        <pt x="656" y="343" on="1"/>
        <pt x="538" y="343" on="1"/>
        <pt x="522" y="236" on="1"/>
        <pt x="656" y="236" on="1"/>
        <pt x="656" y="98" on="1"/>
        <pt x="502" y="98" on="1"/>
        <pt x="481" y="-54" on="1"/>
        <pt x="349" y="-54" on="1"/>
        <pt x="371" y="98" on="1"/>
        <pt x="258" y="98" on="1"/>
        <pt x="236" y="-54" on="1"/>
        <pt x="105" y="-54" on="1"/>
        <pt x="127" y="98" on="1"/>
      </contour>
      <contour>
        <pt x="278" y="236" on="1"/>
        <pt x="391" y="236" on="1"/>
        <pt x="406" y="343" on="1"/>
        <pt x="293" y="343" on="1"/>
      </contour>
    </TTGlyph>
    <TTGlyph name="one" xMin="39" yMin="0" xMax="338" yMax="620">
      <contour>
        <pt x="210" y="0" on="1"/>
        <pt x="210" y="425" on="1"/>
        <pt x="39" y="362" on="1"/>
        <pt x="39" y="516" on="1"/>
        <pt x="338" y="620" on="1"/>
        <pt x="338" y="0" on="1"/>
      </contour>
    </TTGlyph>
    <TTGlyph name="parenleft" xMin="30" yMin="-249" xMax="330" yMax="744">
      <contour>
        <pt x="219" y="-249" on="1"/>
        <pt x="171" y="-194" on="0"/>
        <pt x="85" y="-50" on="0"/>
        <pt x="30" y="135" on="0"/>
        <pt x="30" y="249" on="1"/>
        <pt x="30" y="363" on="0"/>
        <pt x="84" y="544" on="0"/>
        <pt x="170" y="687" on="0"/>
        <pt x="217" y="744" on="1"/>
        <pt x="330" y="677" on="1"/>
        <pt x="286" y="624" on="0"/>
        <pt x="209" y="500" on="0"/>
        <pt x="162" y="346" on="0"/>
        <pt x="162" y="250" on="1"/>
        <pt x="162" y="152" on="0"/>
        <pt x="209" y="-4" on="0"/>
        <pt x="283" y="-125" on="0"/>
        <pt x="323" y="-169" on="1"/>
      </contour>
    </TTGlyph>
    <TTGlyph name="parenright" xMin="30" yMin="-249" xMax="331" yMax="744">
      <contour>
        <pt x="142" y="-249" on="1"/>
        <pt x="37" y="-169" on="1"/>
        <pt x="78" y="-125" on="0"/>
        <pt x="152" y="-4" on="0"/>
        <pt x="198" y="152" on="0"/>
        <pt x="198" y="250" on="1"/>
        <pt x="198" y="346" on="0"/>
        <pt x="151" y="500" on="0"/>
        <pt x="75" y="624" on="0"/>
        <pt x="30" y="677" on="1"/>
        <pt x="143" y="744" on="1"/>
        <pt x="191" y="687" on="0"/>
        <pt x="277" y="544" on="0"/>
        <pt x="331" y="363" on="0"/>
        <pt x="331" y="249" on="1"/>
        <pt x="331" y="135" on="0"/>
        <pt x="276" y="-50" on="0"/>
        <pt x="189" y="-194" on="0"/>
      </contour>
    </TTGlyph>
    <TTGlyph name="percent" xMin="24" yMin="-86" xMax="922" yMax="671">
      <contour>
        <pt x="282" y="-86" on="1"/>
        <pt x="177" y="-14" on="1"/>
        <pt x="659" y="671" on="1"/>
        <pt x="765" y="600" on="1"/>
      </contour>
      <contour>
        <pt x="218" y="249" on="1"/>
        <pt x="164" y="249" on="0"/>
        <pt x="76" y="303" on="0"/>
        <pt x="24" y="393" on="0"/>
        <pt x="24" y="447" on="1"/>
        <pt x="24" y="501" on="0"/>
        <pt x="76" y="591" on="0"/>
        <pt x="164" y="644" on="0"/>
        <pt x="218" y="644" on="1"/>
        <pt x="271" y="644" on="0"/>
        <pt x="359" y="591" on="0"/>
        <pt x="410" y="501" on="0"/>
        <pt x="410" y="447" on="1"/>
        <pt x="410" y="393" on="0"/>
        <pt x="359" y="303" on="0"/>
        <pt x="271" y="249" on="0"/>
      </contour>
      <contour>
        <pt x="218" y="377" on="1"/>
        <pt x="249" y="377" on="0"/>
        <pt x="291" y="418" on="0"/>
        <pt x="291" y="447" on="1"/>
        <pt x="291" y="476" on="0"/>
        <pt x="250" y="516" on="0"/>
        <pt x="218" y="516" on="1"/>
        <pt x="186" y="516" on="0"/>
        <pt x="143" y="476" on="0"/>
        <pt x="143" y="447" on="1"/>
        <pt x="143" y="418" on="0"/>
        <pt x="186" y="377" on="0"/>
      </contour>
      <contour>
        <pt x="729" y="-53" on="1"/>
        <pt x="675" y="-53" on="0"/>
        <pt x="588" y="0" on="0"/>
        <pt x="536" y="90" on="0"/>
        <pt x="536" y="145" on="1"/>
        <pt x="536" y="199" on="0"/>
        <pt x="588" y="288" on="0"/>
        <pt x="675" y="342" on="0"/>
        <pt x="729" y="342" on="1"/>
        <pt x="783" y="342" on="0"/>
        <pt x="870" y="288" on="0"/>
        <pt x="922" y="199" on="0"/>
        <pt x="922" y="145" on="1"/>
        <pt x="922" y="90" on="0"/>
        <pt x="870" y="0" on="0"/>
        <pt x="783" y="-53" on="0"/>
      </contour>
      <contour>
        <pt x="729" y="75" on="1"/>
        <pt x="761" y="75" on="0"/>
        <pt x="803" y="115" on="0"/>
        <pt x="803" y="145" on="1"/>
        <pt x="803" y="173" on="0"/>
        <pt x="761" y="213" on="0"/>
        <pt x="729" y="213" on="1"/>
        <pt x="697" y="213" on="0"/>
        <pt x="655" y="173" on="0"/>
        <pt x="655" y="145" on="1"/>
        <pt x="655" y="115" on="0"/>
        <pt x="697" y="75" on="0"/>
      </contour>
    </TTGlyph>
    <TTGlyph name="period" xMin="28" yMin="-9" xMax="199" yMax="162">
      <contour>
        <pt x="28" y="76" on="1"/>
        <pt x="28" y="114" on="0"/>
        <pt x="76" y="162" on="0"/>
        <pt x="113" y="162" on="1"/>
        <pt x="151" y="162" on="0"/>
        <pt x="199" y="114" on="0"/>
        <pt x="199" y="76" on="1"/>
        <pt x="199" y="39" on="0"/>
        <pt x="151" y="-9" on="0"/>
        <pt x="113" y="-9" on="1"/>
        <pt x="75" y="-9" on="0"/>
        <pt x="28" y="39" on="0"/>
      </contour>
    </TTGlyph>
    <TTGlyph name="periodcentered" xMin="47" yMin="213" xMax="180" yMax="347">
      <contour>
        <pt x="80" y="228" on="1"/>
        <pt x="57" y="242" on="0"/>
        <pt x="47" y="289" on="0"/>
        <pt x="61" y="313" on="1"/>
        <pt x="76" y="336" on="0"/>
        <pt x="124" y="347" on="0"/>
        <pt x="147" y="332" on="1"/>
        <pt x="170" y="318" on="0"/>
        <pt x="180" y="269" on="0"/>
        <pt x="166" y="246" on="1"/>
        <pt x="151" y="223" on="0"/>
        <pt x="104" y="213" on="0"/>
      </contour>
    </TTGlyph>
    <TTGlyph name="plus" xMin="39" yMin="194" xMax="436" yMax="433">
      <contour>
        <pt x="39" y="194" on="1"/>
        <pt x="39" y="310" on="1"/>
        <pt x="175" y="310" on="1"/>
        <pt x="175" y="433" on="1"/>
        <pt x="299" y="433" on="1"/>
        <pt x="299" y="310" on="1"/>
        <pt x="436" y="310" on="1"/>
        <pt x="436" y="194" on="1"/>
      </contour>
    </TTGlyph>
    <TTGlyph name="question" xMin="39" yMin="-9" xMax="453" yMax="625">
      <contour>
        <pt x="164" y="206" on="1"/>
        <pt x="164" y="215" on="1"/>
        <pt x="164" y="266" on="0"/>
        <pt x="196" y="328" on="0"/>
        <pt x="243" y="365" on="0"/>
        <pt x="291" y="390" on="0"/>
        <pt x="323" y="416" on="0"/>
        <pt x="323" y="437" on="1"/>
        <pt x="323" y="456" on="0"/>
        <pt x="295" y="488" on="0"/>
        <pt x="251" y="507" on="0"/>
        <pt x="227" y="507" on="1"/>
        <pt x="182" y="507" on="0"/>
        <pt x="113" y="471" on="0"/>
        <pt x="77" y="440" on="1"/>
        <pt x="39" y="538" on="1"/>
        <pt x="73" y="577" on="0"/>
        <pt x="166" y="625" on="0"/>
        <pt x="236" y="625" on="1"/>
        <pt x="289" y="625" on="0"/>
        <pt x="389" y="580" on="0"/>
        <pt x="453" y="498" on="0"/>
        <pt x="453" y="443" on="1"/>
        <pt x="453" y="401" on="0"/>
        <pt x="420" y="351" on="0"/>
        <pt x="371" y="320" on="0"/>
        <pt x="322" y="292" on="0"/>
        <pt x="289" y="250" on="0"/>
        <pt x="289" y="215" on="1"/>
        <pt x="289" y="206" on="1"/>
      </contour>
      <contour>
        <pt x="227" y="-9" on="1"/>
        <pt x="189" y="-9" on="0"/>
        <pt x="141" y="39" on="0"/>
        <pt x="141" y="76" on="1"/>
        <pt x="141" y="114" on="0"/>
        <pt x="190" y="162" on="0"/>
        <pt x="227" y="162" on="1"/>
        <pt x="265" y="162" on="0"/>
        <pt x="313" y="114" on="0"/>
        <pt x="313" y="76" on="1"/>
        <pt x="313" y="39" on="0"/>
        <pt x="265" y="-9" on="0"/>
      </contour>
    </TTGlyph>
    <TTGlyph name="quotedbl" xMin="22" yMin="336" xMax="418" yMax="613">
      <contour>
        <pt x="214" y="336" on="1"/>
        <pt x="275" y="613" on="1"/>
        <pt x="418" y="613" on="1"/>
        <pt x="331" y="336" on="1"/>
      </contour>
      <contour>
        <pt x="22" y="336" on="1"/>
        <pt x="83" y="613" on="1"/>
        <pt x="225" y="613" on="1"/>
        <pt x="139" y="336" on="1"/>
      </contour>
    </TTGlyph>
    <TTGlyph name="quotesingle" xMin="21" yMin="336" xMax="224" yMax="613">
      <contour>
        <pt x="21" y="336" on="1"/>
        <pt x="81" y="613" on="1"/>
        <pt x="224" y="613" on="1"/>
        <pt x="137" y="336" on="1"/>
      </contour>
    </TTGlyph>
    <TTGlyph name="registered" xMin="33" yMin="180" xMax="478" yMax="622">
      <contour>
        <pt x="256" y="180" on="1"/>
        <pt x="194" y="180" on="0"/>
        <pt x="94" y="240" on="0"/>
        <pt x="33" y="340" on="0"/>
        <pt x="33" y="401" on="1"/>
        <pt x="33" y="462" on="0"/>
        <pt x="94" y="563" on="0"/>
        <pt x="194" y="622" on="0"/>
        <pt x="256" y="622" on="1"/>
        <pt x="317" y="622" on="0"/>
        <pt x="418" y="563" on="0"/>
        <pt x="478" y="462" on="0"/>
        <pt x="478" y="401" on="1"/>
        <pt x="478" y="340" on="0"/>
        <pt x="418" y="240" on="0"/>
        <pt x="317" y="180" on="0"/>
      </contour>
      <contour>
        <pt x="256" y="231" on="1"/>
        <pt x="303" y="231" on="0"/>
        <pt x="379" y="277" on="0"/>
        <pt x="423" y="355" on="0"/>
        <pt x="423" y="401" on="1"/>
        <pt x="423" y="448" on="0"/>
        <pt x="379" y="526" on="0"/>
        <pt x="303" y="572" on="0"/>
        <pt x="256" y="572" on="1"/>
        <pt x="209" y="572" on="0"/>
        <pt x="133" y="526" on="0"/>
        <pt x="88" y="448" on="0"/>
        <pt x="88" y="401" on="1"/>
        <pt x="88" y="355" on="0"/>
        <pt x="133" y="277" on="0"/>
        <pt x="209" y="231" on="0"/>
      </contour>
      <contour>
        <pt x="172" y="293" on="1"/>
        <pt x="172" y="517" on="1"/>
        <pt x="257" y="517" on="1"/>
        <pt x="300" y="517" on="0"/>
        <pt x="354" y="470" on="0"/>
        <pt x="354" y="434" on="1"/>
        <pt x="354" y="411" on="0"/>
        <pt x="331" y="373" on="0"/>
        <pt x="310" y="364" on="1"/>
        <pt x="351" y="293" on="1"/>
        <pt x="285" y="293" on="1"/>
        <pt x="252" y="354" on="1"/>
        <pt x="229" y="354" on="1"/>
        <pt x="229" y="293" on="1"/>
      </contour>
      <contour>
        <pt x="229" y="403" on="1"/>
        <pt x="254" y="403" on="1"/>
        <pt x="295" y="403" on="0"/>
        <pt x="295" y="433" on="1"/>
        <pt x="295" y="464" on="0"/>
        <pt x="254" y="464" on="1"/>
        <pt x="229" y="464" on="1"/>
      </contour>
    </TTGlyph>
    <TTGlyph name="semicolon" xMin="15" yMin="-116" xMax="201" yMax="476">
      <contour>
        <pt x="113" y="305" on="1"/>
        <pt x="75" y="305" on="0"/>
        <pt x="28" y="353" on="0"/>
        <pt x="28" y="390" on="1"/>
        <pt x="28" y="428" on="0"/>
        <pt x="76" y="476" on="0"/>
        <pt x="113" y="476" on="1"/>
        <pt x="151" y="476" on="0"/>
        <pt x="199" y="428" on="0"/>
        <pt x="199" y="390" on="1"/>
        <pt x="199" y="353" on="0"/>
        <pt x="151" y="305" on="0"/>
      </contour>
      <contour>
        <pt x="15" y="-116" on="1"/>
        <pt x="58" y="144" on="1"/>
        <pt x="201" y="144" on="1"/>
        <pt x="128" y="-116" on="1"/>
      </contour>
    </TTGlyph>
    <TTGlyph name="seven" xMin="41" yMin="0" xMax="518" yMax="601">
      <contour>
        <pt x="289" y="0" on="1"/>
        <pt x="148" y="0" on="1"/>
        <pt x="329" y="464" on="1"/>
        <pt x="41" y="464" on="1"/>
        <pt x="41" y="601" on="1"/>
        <pt x="518" y="601" on="1"/>
      </contour>
    </TTGlyph>
    <TTGlyph name="six" xMin="29" yMin="-19" xMax="509" yMax="646">
      <contour>
        <pt x="29" y="216" on="1"/>
        <pt x="29" y="305" on="0"/>
        <pt x="93" y="451" on="0"/>
        <pt x="211" y="582" on="0"/>
        <pt x="293" y="646" on="1"/>
        <pt x="368" y="537" on="1"/>
        <pt x="341" y="517" on="0"/>
        <pt x="267" y="458" on="0"/>
        <pt x="233" y="417" on="1"/>
        <pt x="258" y="421" on="0"/>
        <pt x="284" y="421" on="1"/>
        <pt x="352" y="421" on="0"/>
        <pt x="453" y="365" on="0"/>
        <pt x="509" y="269" on="0"/>
        <pt x="509" y="211" on="1"/>
        <pt x="509" y="139" on="0"/>
        <pt x="447" y="36" on="0"/>
        <pt x="340" y="-19" on="0"/>
        <pt x="272" y="-19" on="1"/>
        <pt x="206" y="-19" on="0"/>
        <pt x="95" y="39" on="0"/>
        <pt x="29" y="145" on="0"/>
      </contour>
      <contour>
        <pt x="274" y="118" on="1"/>
        <pt x="322" y="118" on="0"/>
        <pt x="381" y="166" on="0"/>
        <pt x="381" y="203" on="1"/>
        <pt x="381" y="242" on="0"/>
        <pt x="320" y="284" on="0"/>
        <pt x="270" y="284" on="1"/>
        <pt x="222" y="284" on="0"/>
        <pt x="158" y="247" on="0"/>
        <pt x="158" y="208" on="1"/>
        <pt x="158" y="167" on="0"/>
        <pt x="226" y="118" on="0"/>
      </contour>
    </TTGlyph>
    <TTGlyph name="slash" xMin="6" yMin="-185" xMax="414" yMax="730">
      <contour>
        <pt x="6" y="-185" on="1"/>
        <pt x="279" y="730" on="1"/>
        <pt x="414" y="730" on="1"/>
        <pt x="141" y="-185" on="1"/>
      </contour>
    </TTGlyph>
    <TTGlyph name="three" xMin="26" yMin="-21" xMax="502" yMax="601">
      <contour>
        <pt x="253" y="-21" on="1"/>
        <pt x="191" y="-21" on="0"/>
        <pt x="75" y="6" on="0"/>
        <pt x="26" y="26" on="1"/>
        <pt x="77" y="153" on="1"/>
        <pt x="114" y="138" on="0"/>
        <pt x="200" y="116" on="0"/>
        <pt x="253" y="116" on="1"/>
        <pt x="304" y="116" on="0"/>
        <pt x="374" y="162" on="0"/>
        <pt x="374" y="198" on="1"/>
        <pt x="374" y="244" on="0"/>
        <pt x="242" y="282" on="0"/>
        <pt x="127" y="287" on="1"/>
        <pt x="281" y="464" on="1"/>
        <pt x="52" y="464" on="1"/>
        <pt x="52" y="601" on="1"/>
        <pt x="483" y="601" on="1"/>
        <pt x="483" y="488" on="1"/>
        <pt x="349" y="367" on="1"/>
        <pt x="426" y="344" on="0"/>
        <pt x="502" y="255" on="0"/>
        <pt x="502" y="184" on="1"/>
        <pt x="502" y="127" on="0"/>
        <pt x="441" y="34" on="0"/>
        <pt x="330" y="-21" on="0"/>
      </contour>
    </TTGlyph>
    <TTGlyph name="trademark" xMin="33" yMin="271" xMax="646" yMax="576">
      <contour>
        <pt x="296" y="271" on="1"/>
        <pt x="296" y="576" on="1"/>
        <pt x="369" y="576" on="1"/>
        <pt x="470" y="442" on="1"/>
        <pt x="574" y="576" on="1"/>
        <pt x="646" y="576" on="1"/>
        <pt x="646" y="271" on="1"/>
        <pt x="564" y="271" on="1"/>
        <pt x="564" y="431" on="1"/>
        <pt x="470" y="321" on="1"/>
        <pt x="377" y="431" on="1"/>
        <pt x="377" y="271" on="1"/>
      </contour>
      <contour>
        <pt x="111" y="271" on="1"/>
        <pt x="111" y="492" on="1"/>
        <pt x="33" y="492" on="1"/>
        <pt x="33" y="576" on="1"/>
        <pt x="271" y="576" on="1"/>
        <pt x="271" y="492" on="1"/>
        <pt x="192" y="492" on="1"/>
        <pt x="192" y="271" on="1"/>
      </contour>
    </TTGlyph>
    <TTGlyph name="two" xMin="20" yMin="0" xMax="500" yMax="623">
      <contour>
        <pt x="57" y="0" on="1"/>
        <pt x="60" y="143" on="1"/>
        <pt x="208" y="217" on="0"/>
        <pt x="357" y="331" on="0"/>
        <pt x="357" y="392" on="1"/>
        <pt x="357" y="432" on="0"/>
        <pt x="304" y="485" on="0"/>
        <pt x="259" y="485" on="1"/>
        <pt x="218" y="485" on="0"/>
        <pt x="134" y="445" on="0"/>
        <pt x="88" y="407" on="1"/>
        <pt x="20" y="516" on="1"/>
        <pt x="57" y="544" on="0"/>
        <pt x="133" y="593" on="0"/>
        <pt x="224" y="623" on="0"/>
        <pt x="283" y="623" on="1"/>
        <pt x="352" y="623" on="0"/>
        <pt x="446" y="568" on="0"/>
        <pt x="494" y="476" on="0"/>
        <pt x="494" y="422" on="1"/>
        <pt x="494" y="355" on="0"/>
        <pt x="432" y="256" on="0"/>
        <pt x="334" y="175" on="0"/>
        <pt x="280" y="137" on="1"/>
        <pt x="500" y="137" on="1"/>
        <pt x="500" y="0" on="1"/>
      </contour>
    </TTGlyph>
    <TTGlyph name="underscore" xMin="38" yMin="-24" xMax="462" yMax="91">
      <contour>
        <pt x="38" y="91" on="1"/>
        <pt x="462" y="91" on="1"/>
        <pt x="462" y="-24" on="1"/>
        <pt x="38" y="-24" on="1"/>
      </contour>
    </TTGlyph>
    <TTGlyph name="uni05B0" xMin="-50" yMin="-308" xMax="49" yMax="-84">
      <contour>
        <pt x="0" y="-184" on="1"/>
        <pt x="-21" y="-184" on="0"/>
        <pt x="-50" y="-154" on="0"/>
        <pt x="-50" y="-134" on="1"/>
        <pt x="-50" y="-114" on="0"/>
        <pt x="-21" y="-84" on="0"/>
        <pt x="0" y="-84" on="1"/>
        <pt x="20" y="-84" on="0"/>
        <pt x="49" y="-114" on="0"/>
        <pt x="49" y="-134" on="1"/>
        <pt x="49" y="-154" on="0"/>
        <pt x="20" y="-184" on="0"/>
      </contour>
      <contour>
        <pt x="0" y="-308" on="1"/>
        <pt x="-21" y="-308" on="0"/>
        <pt x="-50" y="-279" on="0"/>
        <pt x="-50" y="-258" on="1"/>
        <pt x="-50" y="-238" on="0"/>
        <pt x="-21" y="-208" on="0"/>
        <pt x="0" y="-208" on="1"/>
        <pt x="20" y="-208" on="0"/>
        <pt x="49" y="-238" on="0"/>
        <pt x="49" y="-258" on="1"/>
        <pt x="49" y="-279" on="0"/>
        <pt x="20" y="-308" on="0"/>
      </contour>
    </TTGlyph>
    <TTGlyph name="uni05B1" xMin="-181" yMin="-308" xMax="180" yMax="-84">
      <contour>
        <pt x="131" y="-184" on="1"/>
        <pt x="110" y="-184" on="0"/>
        <pt x="81" y="-154" on="0"/>
        <pt x="81" y="-134" on="1"/>
        <pt x="81" y="-114" on="0"/>
        <pt x="110" y="-84" on="0"/>
        <pt x="131" y="-84" on="1"/>
        <pt x="152" y="-84" on="0"/>
        <pt x="180" y="-114" on="0"/>
        <pt x="180" y="-134" on="1"/>
        <pt x="180" y="-154" on="0"/>
        <pt x="152" y="-184" on="0"/>
      </contour>
      <contour>
        <pt x="-132" y="-184" on="1"/>
        <pt x="-153" y="-184" on="0"/>
        <pt x="-181" y="-154" on="0"/>
        <pt x="-181" y="-134" on="1"/>
        <pt x="-181" y="-114" on="0"/>
        <pt x="-153" y="-84" on="0"/>
        <pt x="-132" y="-84" on="1"/>
        <pt x="-111" y="-84" on="0"/>
        <pt x="-83" y="-114" on="0"/>
        <pt x="-83" y="-134" on="1"/>
        <pt x="-83" y="-154" on="0"/>
        <pt x="-111" y="-184" on="0"/>
      </contour>
      <contour>
        <pt x="1" y="-184" on="1"/>
        <pt x="-20" y="-184" on="0"/>
        <pt x="-49" y="-154" on="0"/>
        <pt x="-49" y="-134" on="1"/>
        <pt x="-49" y="-114" on="0"/>
        <pt x="-20" y="-84" on="0"/>
        <pt x="1" y="-84" on="1"/>
        <pt x="21" y="-84" on="0"/>
        <pt x="50" y="-114" on="0"/>
        <pt x="50" y="-134" on="1"/>
        <pt x="50" y="-154" on="0"/>
        <pt x="21" y="-184" on="0"/>
      </contour>
      <contour>
        <pt x="131" y="-308" on="1"/>
        <pt x="110" y="-308" on="0"/>
        <pt x="81" y="-279" on="0"/>
        <pt x="81" y="-258" on="1"/>
        <pt x="81" y="-238" on="0"/>
        <pt x="110" y="-208" on="0"/>
        <pt x="131" y="-208" on="1"/>
        <pt x="152" y="-208" on="0"/>
        <pt x="180" y="-238" on="0"/>
        <pt x="180" y="-258" on="1"/>
        <pt x="180" y="-279" on="0"/>
        <pt x="152" y="-308" on="0"/>
      </contour>
      <contour>
        <pt x="-65" y="-308" on="1"/>
        <pt x="-86" y="-308" on="0"/>
        <pt x="-115" y="-279" on="0"/>
        <pt x="-115" y="-258" on="1"/>
        <pt x="-115" y="-238" on="0"/>
        <pt x="-86" y="-208" on="0"/>
        <pt x="-65" y="-208" on="1"/>
        <pt x="-45" y="-208" on="0"/>
        <pt x="-17" y="-238" on="0"/>
        <pt x="-17" y="-258" on="1"/>
        <pt x="-17" y="-279" on="0"/>
        <pt x="-45" y="-308" on="0"/>
      </contour>
    </TTGlyph>
    <TTGlyph name="uni05B2" xMin="-180" yMin="-308" xMax="166" yMax="-84">
      <contour>
        <pt x="117" y="-184" on="1"/>
        <pt x="96" y="-184" on="0"/>
        <pt x="67" y="-154" on="0"/>
        <pt x="67" y="-134" on="1"/>
        <pt x="67" y="-114" on="0"/>
        <pt x="96" y="-84" on="0"/>
        <pt x="117" y="-84" on="1"/>
        <pt x="137" y="-84" on="0"/>
        <pt x="166" y="-114" on="0"/>
        <pt x="166" y="-134" on="1"/>
        <pt x="166" y="-154" on="0"/>
        <pt x="137" y="-184" on="0"/>
      </contour>
      <contour>
        <pt x="-180" y="-165" on="1"/>
        <pt x="-180" y="-93" on="1"/>
        <pt x="28" y="-93" on="1"/>
        <pt x="28" y="-165" on="1"/>
      </contour>
      <contour>
        <pt x="117" y="-308" on="1"/>
        <pt x="96" y="-308" on="0"/>
        <pt x="67" y="-279" on="0"/>
        <pt x="67" y="-258" on="1"/>
        <pt x="67" y="-238" on="0"/>
        <pt x="96" y="-208" on="0"/>
        <pt x="117" y="-208" on="1"/>
        <pt x="137" y="-208" on="0"/>
        <pt x="166" y="-238" on="0"/>
        <pt x="166" y="-258" on="1"/>
        <pt x="166" y="-279" on="0"/>
        <pt x="137" y="-308" on="0"/>
      </contour>
    </TTGlyph>
    <TTGlyph name="uni05B3" xMin="-180" yMin="-308" xMax="166" yMax="-84">
      <contour>
        <pt x="117" y="-184" on="1"/>
        <pt x="96" y="-184" on="0"/>
        <pt x="67" y="-154" on="0"/>
        <pt x="67" y="-134" on="1"/>
        <pt x="67" y="-114" on="0"/>
        <pt x="96" y="-84" on="0"/>
        <pt x="117" y="-84" on="1"/>
        <pt x="137" y="-84" on="0"/>
        <pt x="166" y="-114" on="0"/>
        <pt x="166" y="-134" on="1"/>
        <pt x="166" y="-154" on="0"/>
        <pt x="137" y="-184" on="0"/>
      </contour>
      <contour>
        <pt x="-112" y="-308" on="1"/>
        <pt x="-108" y="-165" on="1"/>
        <pt x="-180" y="-165" on="1"/>
        <pt x="-180" y="-93" on="1"/>
        <pt x="28" y="-93" on="1"/>
        <pt x="28" y="-165" on="1"/>
        <pt x="-44" y="-165" on="1"/>
        <pt x="-39" y="-308" on="1"/>
      </contour>
      <contour>
        <pt x="117" y="-308" on="1"/>
        <pt x="96" y="-308" on="0"/>
        <pt x="67" y="-279" on="0"/>
        <pt x="67" y="-258" on="1"/>
        <pt x="67" y="-238" on="0"/>
        <pt x="96" y="-208" on="0"/>
        <pt x="117" y="-208" on="1"/>
        <pt x="137" y="-208" on="0"/>
        <pt x="166" y="-238" on="0"/>
        <pt x="166" y="-258" on="1"/>
        <pt x="166" y="-279" on="0"/>
        <pt x="137" y="-308" on="0"/>
      </contour>
    </TTGlyph>
    <TTGlyph name="uni05B4" xMin="-50" yMin="-184" xMax="49" yMax="-84">
      <contour>
        <pt x="0" y="-184" on="1"/>
        <pt x="-21" y="-184" on="0"/>
        <pt x="-50" y="-154" on="0"/>
        <pt x="-50" y="-134" on="1"/>
        <pt x="-50" y="-114" on="0"/>
        <pt x="-21" y="-84" on="0"/>
        <pt x="0" y="-84" on="1"/>
        <pt x="20" y="-84" on="0"/>
        <pt x="49" y="-114" on="0"/>
        <pt x="49" y="-134" on="1"/>
        <pt x="49" y="-154" on="0"/>
        <pt x="20" y="-184" on="0"/>
      </contour>
    </TTGlyph>
    <TTGlyph name="uni05B5" xMin="-127" yMin="-184" xMax="126" yMax="-84">
      <contour>
        <pt x="-77" y="-184" on="1"/>
        <pt x="-98" y="-184" on="0"/>
        <pt x="-127" y="-154" on="0"/>
        <pt x="-127" y="-134" on="1"/>
        <pt x="-127" y="-114" on="0"/>
        <pt x="-98" y="-84" on="0"/>
        <pt x="-77" y="-84" on="1"/>
        <pt x="-57" y="-84" on="0"/>
        <pt x="-28" y="-114" on="0"/>
        <pt x="-28" y="-134" on="1"/>
        <pt x="-28" y="-154" on="0"/>
        <pt x="-57" y="-184" on="0"/>
      </contour>
      <contour>
        <pt x="77" y="-184" on="1"/>
        <pt x="56" y="-184" on="0"/>
        <pt x="27" y="-154" on="0"/>
        <pt x="27" y="-134" on="1"/>
        <pt x="27" y="-114" on="0"/>
        <pt x="56" y="-84" on="0"/>
        <pt x="77" y="-84" on="1"/>
        <pt x="97" y="-84" on="0"/>
        <pt x="126" y="-114" on="0"/>
        <pt x="126" y="-134" on="1"/>
        <pt x="126" y="-154" on="0"/>
        <pt x="97" y="-184" on="0"/>
      </contour>
    </TTGlyph>
    <TTGlyph name="uni05B6" xMin="-127" yMin="-308" xMax="126" yMax="-84">
      <contour>
        <pt x="-77" y="-184" on="1"/>
        <pt x="-98" y="-184" on="0"/>
        <pt x="-127" y="-154" on="0"/>
        <pt x="-127" y="-134" on="1"/>
        <pt x="-127" y="-114" on="0"/>
        <pt x="-98" y="-84" on="0"/>
        <pt x="-77" y="-84" on="1"/>
        <pt x="-57" y="-84" on="0"/>
        <pt x="-28" y="-114" on="0"/>
        <pt x="-28" y="-134" on="1"/>
        <pt x="-28" y="-154" on="0"/>
        <pt x="-57" y="-184" on="0"/>
      </contour>
      <contour>
        <pt x="77" y="-184" on="1"/>
        <pt x="56" y="-184" on="0"/>
        <pt x="27" y="-154" on="0"/>
        <pt x="27" y="-134" on="1"/>
        <pt x="27" y="-114" on="0"/>
        <pt x="56" y="-84" on="0"/>
        <pt x="77" y="-84" on="1"/>
        <pt x="97" y="-84" on="0"/>
        <pt x="126" y="-114" on="0"/>
        <pt x="126" y="-134" on="1"/>
        <pt x="126" y="-154" on="0"/>
        <pt x="97" y="-184" on="0"/>
      </contour>
      <contour>
        <pt x="0" y="-308" on="1"/>
        <pt x="-21" y="-308" on="0"/>
        <pt x="-50" y="-279" on="0"/>
        <pt x="-50" y="-258" on="1"/>
        <pt x="-50" y="-238" on="0"/>
        <pt x="-21" y="-208" on="0"/>
        <pt x="0" y="-208" on="1"/>
        <pt x="20" y="-208" on="0"/>
        <pt x="49" y="-238" on="0"/>
        <pt x="49" y="-258" on="1"/>
        <pt x="49" y="-279" on="0"/>
        <pt x="20" y="-308" on="0"/>
      </contour>
    </TTGlyph>
    <TTGlyph name="uni05B7" xMin="-139" yMin="-165" xMax="141" yMax="-93">
      <contour>
        <pt x="-139" y="-165" on="1"/>
        <pt x="-139" y="-93" on="1"/>
        <pt x="141" y="-93" on="1"/>
        <pt x="141" y="-165" on="1"/>
      </contour>
    </TTGlyph>
    <TTGlyph name="uni05B8" xMin="-139" yMin="-267" xMax="141" yMax="-93">
      <contour>
        <pt x="-139" y="-165" on="1"/>
        <pt x="-139" y="-93" on="1"/>
        <pt x="141" y="-93" on="1"/>
        <pt x="141" y="-165" on="1"/>
        <pt x="34" y="-165" on="1"/>
        <pt x="38" y="-267" on="1"/>
        <pt x="-36" y="-267" on="1"/>
        <pt x="-32" y="-165" on="1"/>
      </contour>
    </TTGlyph>
    <TTGlyph name="uni05B8.narrow" xMin="-90" yMin="-267" xMax="92" yMax="-93">
      <contour>
        <pt x="-90" y="-165" on="1"/>
        <pt x="-90" y="-93" on="1"/>
        <pt x="92" y="-93" on="1"/>
        <pt x="92" y="-165" on="1"/>
        <pt x="34" y="-165" on="1"/>
        <pt x="38" y="-267" on="1"/>
        <pt x="-36" y="-267" on="1"/>
        <pt x="-32" y="-165" on="1"/>
      </contour>
    </TTGlyph>
    <TTGlyph name="uni05B9" xMin="-87" yMin="620" xMax="12" yMax="720">
      <contour>
        <pt x="-37" y="620" on="1"/>
        <pt x="-58" y="620" on="0"/>
        <pt x="-87" y="650" on="0"/>
        <pt x="-87" y="670" on="1"/>
        <pt x="-87" y="690" on="0"/>
        <pt x="-58" y="720" on="0"/>
        <pt x="-37" y="720" on="1"/>
        <pt x="-17" y="720" on="0"/>
        <pt x="12" y="690" on="0"/>
        <pt x="12" y="670" on="1"/>
        <pt x="12" y="650" on="0"/>
        <pt x="-17" y="620" on="0"/>
      </contour>
    </TTGlyph>
    <TTGlyph name="uni05BA" xMin="-87" yMin="620" xMax="12" yMax="720">
      <contour>
        <pt x="-37" y="620" on="1"/>
        <pt x="-58" y="620" on="0"/>
        <pt x="-87" y="650" on="0"/>
        <pt x="-87" y="670" on="1"/>
        <pt x="-87" y="690" on="0"/>
        <pt x="-58" y="720" on="0"/>
        <pt x="-37" y="720" on="1"/>
        <pt x="-17" y="720" on="0"/>
        <pt x="12" y="690" on="0"/>
        <pt x="12" y="670" on="1"/>
        <pt x="12" y="650" on="0"/>
        <pt x="-17" y="620" on="0"/>
      </contour>
    </TTGlyph>
    <TTGlyph name="uni05BB" xMin="-50" yMin="-380" xMax="192" yMax="-84">
      <contour>
        <pt x="0" y="-184" on="1"/>
        <pt x="-21" y="-184" on="0"/>
        <pt x="-50" y="-154" on="0"/>
        <pt x="-50" y="-134" on="1"/>
        <pt x="-50" y="-114" on="0"/>
        <pt x="-21" y="-84" on="0"/>
        <pt x="0" y="-84" on="1"/>
        <pt x="20" y="-84" on="0"/>
        <pt x="49" y="-114" on="0"/>
        <pt x="49" y="-134" on="1"/>
        <pt x="49" y="-154" on="0"/>
        <pt x="20" y="-184" on="0"/>
      </contour>
      <contour>
        <pt x="72" y="-282" on="1"/>
        <pt x="50" y="-282" on="0"/>
        <pt x="22" y="-252" on="0"/>
        <pt x="22" y="-232" on="1"/>
        <pt x="22" y="-212" on="0"/>
        <pt x="50" y="-182" on="0"/>
        <pt x="72" y="-182" on="1"/>
        <pt x="92" y="-182" on="0"/>
        <pt x="120" y="-212" on="0"/>
        <pt x="120" y="-232" on="1"/>
        <pt x="120" y="-252" on="0"/>
        <pt x="92" y="-282" on="0"/>
      </contour>
      <contour>
        <pt x="143" y="-380" on="1"/>
        <pt x="122" y="-380" on="0"/>
        <pt x="93" y="-350" on="0"/>
        <pt x="93" y="-330" on="1"/>
        <pt x="93" y="-310" on="0"/>
        <pt x="122" y="-280" on="0"/>
        <pt x="143" y="-280" on="1"/>
        <pt x="164" y="-280" on="0"/>
        <pt x="192" y="-310" on="0"/>
        <pt x="192" y="-330" on="1"/>
        <pt x="192" y="-350" on="0"/>
        <pt x="164" y="-380" on="0"/>
      </contour>
    </TTGlyph>
    <TTGlyph name="uni05BC" xMin="-9" yMin="157" xMax="104" yMax="271">
      <contour>
        <pt x="48" y="157" on="1"/>
        <pt x="24" y="157" on="0"/>
        <pt x="-9" y="190" on="0"/>
        <pt x="-9" y="214" on="1"/>
        <pt x="-9" y="238" on="0"/>
        <pt x="24" y="271" on="0"/>
        <pt x="48" y="271" on="1"/>
        <pt x="71" y="271" on="0"/>
        <pt x="104" y="238" on="0"/>
        <pt x="104" y="214" on="1"/>
        <pt x="104" y="190" on="0"/>
        <pt x="71" y="157" on="0"/>
      </contour>
    </TTGlyph>
    <TTGlyph name="uni05BE" xMin="38" yMin="435" xMax="327" yMax="556">
      <contour>
        <pt x="38" y="556" on="1"/>
        <pt x="327" y="556" on="1"/>
        <pt x="327" y="435" on="1"/>
        <pt x="38" y="435" on="1"/>
      </contour>
    </TTGlyph>
    <TTGlyph name="uni05BF" xMin="-139" yMin="635" xMax="141" yMax="707">
      <contour>
        <pt x="-139" y="635" on="1"/>
        <pt x="-139" y="707" on="1"/>
        <pt x="141" y="707" on="1"/>
        <pt x="141" y="635" on="1"/>
      </contour>
    </TTGlyph>
    <TTGlyph name="uni05C1" xMin="-122" yMin="620" xMax="-23" yMax="720">
      <contour>
        <pt x="-72" y="620" on="1"/>
        <pt x="-93" y="620" on="0"/>
        <pt x="-122" y="650" on="0"/>
        <pt x="-122" y="670" on="1"/>
        <pt x="-122" y="690" on="0"/>
        <pt x="-93" y="720" on="0"/>
        <pt x="-72" y="720" on="1"/>
        <pt x="-52" y="720" on="0"/>
        <pt x="-23" y="690" on="0"/>
        <pt x="-23" y="670" on="1"/>
        <pt x="-23" y="650" on="0"/>
        <pt x="-52" y="620" on="0"/>
      </contour>
    </TTGlyph>
    <TTGlyph name="uni05C2" xMin="39" yMin="620" xMax="138" yMax="720">
      <contour>
        <pt x="89" y="620" on="1"/>
        <pt x="68" y="620" on="0"/>
        <pt x="39" y="650" on="0"/>
        <pt x="39" y="670" on="1"/>
        <pt x="39" y="690" on="0"/>
        <pt x="68" y="720" on="0"/>
        <pt x="89" y="720" on="1"/>
        <pt x="109" y="720" on="0"/>
        <pt x="138" y="690" on="0"/>
        <pt x="138" y="670" on="1"/>
        <pt x="138" y="650" on="0"/>
        <pt x="109" y="620" on="0"/>
      </contour>
    </TTGlyph>
    <TTGlyph name="uni05D0" xMin="42" yMin="-15" xMax="592" yMax="580">
      <contour>
        <pt x="51" y="0" on="1"/>
        <pt x="51" y="75" on="0"/>
        <pt x="55" y="188" on="0"/>
        <pt x="74" y="277" on="0"/>
        <pt x="115" y="353" on="0"/>
        <pt x="153" y="391" on="1"/>
        <pt x="127" y="415" on="0"/>
        <pt x="72" y="464" on="0"/>
        <pt x="42" y="490" on="1"/>
        <pt x="131" y="580" on="1"/>
        <pt x="215" y="500" on="0"/>
        <pt x="346" y="368" on="0"/>
        <pt x="405" y="301" on="1"/>
        <pt x="423" y="340" on="0"/>
        <pt x="439" y="414" on="0"/>
        <pt x="442" y="500" on="0"/>
        <pt x="442" y="556" on="1"/>
        <pt x="579" y="556" on="1"/>
        <pt x="579" y="491" on="0"/>
        <pt x="572" y="391" on="0"/>
        <pt x="554" y="310" on="0"/>
        <pt x="519" y="237" on="0"/>
        <pt x="490" y="197" on="1"/>
        <pt x="539" y="134" on="0"/>
        <pt x="592" y="59" on="1"/>
        <pt x="489" y="-15" on="1"/>
        <pt x="414" y="92" on="0"/>
        <pt x="294" y="245" on="0"/>
        <pt x="234" y="310" on="1"/>
        <pt x="212" y="275" on="0"/>
        <pt x="193" y="190" on="0"/>
        <pt x="188" y="76" on="0"/>
        <pt x="188" y="0" on="1"/>
      </contour>
    </TTGlyph>
    <TTGlyph name="uni05D0.forDagesh" xMin="42" yMin="-15" xMax="592" yMax="580">
      <contour>
        <pt x="51" y="0" on="1"/>
        <pt x="51" y="75" on="0"/>
        <pt x="55" y="188" on="0"/>
        <pt x="74" y="277" on="0"/>
        <pt x="115" y="353" on="0"/>
        <pt x="153" y="391" on="1"/>
        <pt x="127" y="415" on="0"/>
        <pt x="72" y="464" on="0"/>
        <pt x="42" y="490" on="1"/>
        <pt x="131" y="580" on="1"/>
        <pt x="215" y="500" on="0"/>
        <pt x="346" y="368" on="0"/>
        <pt x="405" y="301" on="1"/>
        <pt x="423" y="340" on="0"/>
        <pt x="439" y="414" on="0"/>
        <pt x="442" y="500" on="0"/>
        <pt x="442" y="556" on="1"/>
        <pt x="579" y="556" on="1"/>
        <pt x="579" y="491" on="0"/>
        <pt x="572" y="391" on="0"/>
        <pt x="554" y="310" on="0"/>
        <pt x="519" y="237" on="0"/>
        <pt x="490" y="197" on="1"/>
        <pt x="539" y="134" on="0"/>
        <pt x="592" y="59" on="1"/>
        <pt x="489" y="-15" on="1"/>
        <pt x="414" y="92" on="0"/>
        <pt x="294" y="245" on="0"/>
        <pt x="234" y="310" on="1"/>
        <pt x="212" y="275" on="0"/>
        <pt x="193" y="190" on="0"/>
        <pt x="188" y="76" on="0"/>
        <pt x="188" y="0" on="1"/>
      </contour>
    </TTGlyph>
    <TTGlyph name="uni05D1" xMin="35" yMin="0" xMax="518" yMax="556">
      <contour>
        <pt x="35" y="0" on="1"/>
        <pt x="35" y="132" on="1"/>
        <pt x="323" y="132" on="1"/>
        <pt x="323" y="297" on="1"/>
        <pt x="323" y="367" on="0"/>
        <pt x="260" y="423" on="0"/>
        <pt x="191" y="423" on="1"/>
        <pt x="35" y="423" on="1"/>
        <pt x="35" y="556" on="1"/>
        <pt x="191" y="556" on="1"/>
        <pt x="323" y="556" on="0"/>
        <pt x="460" y="419" on="0"/>
        <pt x="460" y="297" on="1"/>
        <pt x="460" y="132" on="1"/>
        <pt x="518" y="132" on="1"/>
        <pt x="518" y="0" on="1"/>
      </contour>
    </TTGlyph>
    <TTGlyph name="uni05D2" xMin="32" yMin="-12" xMax="347" yMax="567">
      <contour>
        <pt x="32" y="-12" on="1"/>
        <pt x="35" y="119" on="1"/>
        <pt x="87" y="133" on="0"/>
        <pt x="169" y="186" on="0"/>
        <pt x="195" y="231" on="1"/>
        <pt x="192" y="279" on="1"/>
        <pt x="189" y="341" on="0"/>
        <pt x="157" y="405" on="0"/>
        <pt x="98" y="433" on="0"/>
        <pt x="52" y="439" on="1"/>
        <pt x="65" y="567" on="1"/>
        <pt x="159" y="559" on="0"/>
        <pt x="272" y="498" on="0"/>
        <pt x="326" y="383" on="0"/>
        <pt x="331" y="294" on="1"/>
        <pt x="347" y="2" on="1"/>
        <pt x="210" y="-1" on="1"/>
        <pt x="204" y="100" on="1"/>
        <pt x="174" y="60" on="0"/>
        <pt x="88" y="1" on="0"/>
      </contour>
    </TTGlyph>
    <TTGlyph name="uni05D3" xMin="27" yMin="2" xMax="503" yMax="556">
      <contour>
        <pt x="301" y="2" on="1"/>
        <pt x="301" y="427" on="1"/>
        <pt x="27" y="427" on="1"/>
        <pt x="27" y="556" on="1"/>
        <pt x="503" y="556" on="1"/>
        <pt x="503" y="427" on="1"/>
        <pt x="438" y="427" on="1"/>
        <pt x="438" y="2" on="1"/>
      </contour>
    </TTGlyph>
    <TTGlyph name="uni05D4" xMin="46" yMin="0" xMax="568" yMax="556">
      <contour>
        <pt x="431" y="0" on="1"/>
        <pt x="431" y="294" on="1"/>
        <pt x="431" y="363" on="0"/>
        <pt x="369" y="428" on="0"/>
        <pt x="299" y="428" on="1"/>
        <pt x="46" y="428" on="1"/>
        <pt x="46" y="556" on="1"/>
        <pt x="299" y="556" on="1"/>
        <pt x="433" y="556" on="0"/>
        <pt x="568" y="416" on="0"/>
        <pt x="568" y="294" on="1"/>
        <pt x="568" y="0" on="1"/>
      </contour>
      <contour>
        <pt x="50" y="0" on="1"/>
        <pt x="50" y="318" on="1"/>
        <pt x="187" y="318" on="1"/>
        <pt x="187" y="0" on="1"/>
      </contour>
    </TTGlyph>
    <TTGlyph name="uni05D5" xMin="30" yMin="0" xMax="270" yMax="563">
      <contour>
        <pt x="133" y="0" on="1"/>
        <pt x="133" y="311" on="1"/>
        <pt x="133" y="373" on="0"/>
        <pt x="83" y="425" on="0"/>
        <pt x="30" y="435" on="1"/>
        <pt x="40" y="563" on="1"/>
        <pt x="164" y="553" on="0"/>
        <pt x="270" y="431" on="0"/>
        <pt x="270" y="311" on="1"/>
        <pt x="270" y="0" on="1"/>
      </contour>
    </TTGlyph>
    <TTGlyph name="uni05D6" xMin="31" yMin="-21" xMax="332" yMax="556">
      <contour>
        <pt x="168" y="-21" on="1"/>
        <pt x="136" y="48" on="0"/>
        <pt x="98" y="190" on="0"/>
        <pt x="97" y="260" on="1"/>
        <pt x="96" y="305" on="0"/>
        <pt x="112" y="387" on="0"/>
        <pt x="129" y="428" on="1"/>
        <pt x="31" y="428" on="1"/>
        <pt x="31" y="556" on="1"/>
        <pt x="332" y="556" on="1"/>
        <pt x="332" y="428" on="1"/>
        <pt x="259" y="428" on="1"/>
        <pt x="243" y="386" on="0"/>
        <pt x="234" y="311" on="0"/>
        <pt x="234" y="269" on="1"/>
        <pt x="235" y="210" on="0"/>
        <pt x="267" y="83" on="0"/>
        <pt x="293" y="19" on="1"/>
      </contour>
    </TTGlyph>
    <TTGlyph name="uni05D7" xMin="46" yMin="0" xMax="570" yMax="556">
      <contour>
        <pt x="46" y="0" on="1"/>
        <pt x="46" y="556" on="1"/>
        <pt x="301" y="556" on="1"/>
        <pt x="438" y="556" on="0"/>
        <pt x="570" y="407" on="0"/>
        <pt x="570" y="269" on="1"/>
        <pt x="570" y="0" on="1"/>
        <pt x="433" y="0" on="1"/>
        <pt x="433" y="269" on="1"/>
        <pt x="433" y="354" on="0"/>
        <pt x="372" y="428" on="0"/>
        <pt x="301" y="428" on="1"/>
        <pt x="183" y="428" on="1"/>
        <pt x="183" y="0" on="1"/>
      </contour>
    </TTGlyph>
    <TTGlyph name="uni05D8" xMin="45" yMin="-15" xMax="627" yMax="569">
      <contour>
        <pt x="329" y="-15" on="1"/>
        <pt x="45" y="-15" on="0"/>
        <pt x="46" y="310" on="1"/>
        <pt x="47" y="556" on="1"/>
        <pt x="184" y="556" on="1"/>
        <pt x="183" y="300" on="1"/>
        <pt x="183" y="212" on="0"/>
        <pt x="255" y="113" on="0"/>
        <pt x="329" y="113" on="1"/>
        <pt x="408" y="113" on="0"/>
        <pt x="490" y="208" on="0"/>
        <pt x="490" y="282" on="1"/>
        <pt x="490" y="361" on="0"/>
        <pt x="431" y="436" on="0"/>
        <pt x="383" y="436" on="1"/>
        <pt x="343" y="436" on="0"/>
        <pt x="295" y="411" on="1"/>
        <pt x="265" y="532" on="1"/>
        <pt x="298" y="549" on="0"/>
        <pt x="366" y="569" on="0"/>
        <pt x="404" y="569" on="1"/>
        <pt x="518" y="569" on="0"/>
        <pt x="627" y="420" on="0"/>
        <pt x="627" y="292" on="1"/>
        <pt x="627" y="195" on="0"/>
        <pt x="553" y="58" on="0"/>
        <pt x="419" y="-15" on="0"/>
      </contour>
    </TTGlyph>
    <TTGlyph name="uni05D9" xMin="30" yMin="157" xMax="300" yMax="566">
      <contour>
        <pt x="257" y="157" on="1"/>
        <pt x="136" y="196" on="1"/>
        <pt x="150" y="250" on="0"/>
        <pt x="162" y="315" on="0"/>
        <pt x="162" y="341" on="1"/>
        <pt x="162" y="377" on="0"/>
        <pt x="107" y="431" on="0"/>
        <pt x="30" y="439" on="1"/>
        <pt x="44" y="566" on="1"/>
        <pt x="138" y="562" on="0"/>
        <pt x="251" y="503" on="0"/>
        <pt x="300" y="412" on="0"/>
        <pt x="299" y="361" on="1"/>
        <pt x="299" y="321" on="0"/>
        <pt x="277" y="222" on="0"/>
      </contour>
    </TTGlyph>
    <TTGlyph name="uni05DA" xMin="33" yMin="-157" xMax="517" yMax="556">
      <contour>
        <pt x="315" y="-157" on="1"/>
        <pt x="315" y="428" on="1"/>
        <pt x="33" y="428" on="1"/>
        <pt x="33" y="556" on="1"/>
        <pt x="517" y="556" on="1"/>
        <pt x="517" y="428" on="1"/>
        <pt x="452" y="428" on="1"/>
        <pt x="452" y="-157" on="1"/>
      </contour>
    </TTGlyph>
    <TTGlyph name="uni05DB" xMin="35" yMin="0" xMax="477" yMax="556">
      <contour>
        <pt x="41" y="0" on="1"/>
        <pt x="41" y="128" on="1"/>
        <pt x="196" y="128" on="1"/>
        <pt x="272" y="128" on="0"/>
        <pt x="340" y="199" on="0"/>
        <pt x="340" y="277" on="1"/>
        <pt x="340" y="363" on="0"/>
        <pt x="261" y="428" on="0"/>
        <pt x="173" y="428" on="1"/>
        <pt x="35" y="428" on="1"/>
        <pt x="35" y="556" on="1"/>
        <pt x="173" y="556" on="1"/>
        <pt x="332" y="556" on="0"/>
        <pt x="477" y="427" on="0"/>
        <pt x="477" y="277" on="1"/>
        <pt x="477" y="135" on="0"/>
        <pt x="343" y="0" on="0"/>
        <pt x="196" y="0" on="1"/>
      </contour>
    </TTGlyph>
    <TTGlyph name="uni05DC" xMin="35" yMin="-19" xMax="500" yMax="707">
      <contour>
        <pt x="163" y="-19" on="1"/>
        <pt x="138" y="103" on="1"/>
        <pt x="255" y="132" on="0"/>
        <pt x="363" y="234" on="0"/>
        <pt x="363" y="310" on="1"/>
        <pt x="363" y="377" on="0"/>
        <pt x="276" y="428" on="0"/>
        <pt x="187" y="428" on="1"/>
        <pt x="36" y="428" on="1"/>
        <pt x="35" y="707" on="1"/>
        <pt x="173" y="706" on="1"/>
        <pt x="172" y="556" on="1"/>
        <pt x="267" y="556" on="1"/>
        <pt x="337" y="556" on="0"/>
        <pt x="442" y="499" on="0"/>
        <pt x="500" y="395" on="0"/>
        <pt x="500" y="325" on="1"/>
        <pt x="500" y="193" on="0"/>
        <pt x="331" y="23" on="0"/>
      </contour>
    </TTGlyph>
    <TTGlyph name="uni05DD" xMin="46" yMin="0" xMax="570" yMax="556">
      <contour>
        <pt x="46" y="0" on="1"/>
        <pt x="46" y="556" on="1"/>
        <pt x="314" y="556" on="1"/>
        <pt x="389" y="556" on="0"/>
        <pt x="504" y="492" on="0"/>
        <pt x="570" y="378" on="0"/>
        <pt x="570" y="304" on="1"/>
        <pt x="570" y="0" on="1"/>
      </contour>
      <contour>
        <pt x="183" y="128" on="1"/>
        <pt x="433" y="128" on="1"/>
        <pt x="433" y="304" on="1"/>
        <pt x="433" y="364" on="0"/>
        <pt x="370" y="428" on="0"/>
        <pt x="314" y="428" on="1"/>
        <pt x="183" y="428" on="1"/>
      </contour>
    </TTGlyph>
    <TTGlyph name="uni05DE" xMin="33" yMin="-13" xMax="650" yMax="566">
      <contour>
        <pt x="390" y="-13" on="1"/>
        <pt x="368" y="-13" on="0"/>
        <pt x="310" y="-4" on="0"/>
        <pt x="282" y="4" on="1"/>
        <pt x="306" y="131" on="1"/>
        <pt x="332" y="124" on="0"/>
        <pt x="368" y="116" on="0"/>
        <pt x="387" y="116" on="1"/>
        <pt x="429" y="116" on="0"/>
        <pt x="485" y="157" on="0"/>
        <pt x="513" y="225" on="0"/>
        <pt x="513" y="264" on="1"/>
        <pt x="513" y="310" on="0"/>
        <pt x="486" y="386" on="0"/>
        <pt x="427" y="432" on="0"/>
        <pt x="380" y="432" on="1"/>
        <pt x="324" y="432" on="0"/>
        <pt x="256" y="343" on="0"/>
        <pt x="216" y="190" on="0"/>
        <pt x="203" y="92" on="1"/>
        <pt x="192" y="0" on="1"/>
        <pt x="55" y="0" on="1"/>
        <pt x="68" y="106" on="1"/>
        <pt x="79" y="187" on="0"/>
        <pt x="112" y="326" on="0"/>
        <pt x="137" y="382" on="1"/>
        <pt x="95" y="415" on="0"/>
        <pt x="33" y="444" on="1"/>
        <pt x="71" y="566" on="1"/>
        <pt x="115" y="545" on="0"/>
        <pt x="174" y="500" on="0"/>
        <pt x="196" y="478" on="1"/>
        <pt x="232" y="520" on="0"/>
        <pt x="327" y="565" on="0"/>
        <pt x="388" y="565" on="1"/>
        <pt x="472" y="565" on="0"/>
        <pt x="589" y="483" on="0"/>
        <pt x="650" y="346" on="0"/>
        <pt x="650" y="264" on="1"/>
        <pt x="650" y="186" on="0"/>
        <pt x="589" y="61" on="0"/>
        <pt x="473" y="-13" on="0"/>
      </contour>
    </TTGlyph>
    <TTGlyph name="uni05DF" xMin="34" yMin="-162" xMax="288" yMax="572">
      <contour>
        <pt x="151" y="-162" on="1"/>
        <pt x="151" y="268" on="1"/>
        <pt x="151" y="329" on="0"/>
        <pt x="127" y="396" on="0"/>
        <pt x="75" y="430" on="0"/>
        <pt x="34" y="440" on="1"/>
        <pt x="74" y="572" on="1"/>
        <pt x="151" y="549" on="0"/>
        <pt x="245" y="479" on="0"/>
        <pt x="288" y="362" on="0"/>
        <pt x="288" y="268" on="1"/>
        <pt x="288" y="-162" on="1"/>
      </contour>
    </TTGlyph>
    <TTGlyph name="uni05E0" xMin="37" yMin="0" xMax="326" yMax="564">
      <contour>
        <pt x="37" y="0" on="1"/>
        <pt x="37" y="128" on="1"/>
        <pt x="189" y="128" on="1"/>
        <pt x="189" y="252" on="1"/>
        <pt x="189" y="312" on="0"/>
        <pt x="164" y="389" on="0"/>
        <pt x="101" y="432" on="0"/>
        <pt x="45" y="438" on="1"/>
        <pt x="66" y="564" on="1"/>
        <pt x="167" y="548" on="0"/>
        <pt x="280" y="471" on="0"/>
        <pt x="326" y="345" on="0"/>
        <pt x="326" y="252" on="1"/>
        <pt x="326" y="0" on="1"/>
      </contour>
    </TTGlyph>
    <TTGlyph name="uni05E1" xMin="40" yMin="-7" xMax="635" yMax="556">
      <contour>
        <pt x="342" y="-7" on="1"/>
        <pt x="278" y="-7" on="0"/>
        <pt x="176" y="39" on="0"/>
        <pt x="103" y="120" on="0"/>
        <pt x="64" y="223" on="0"/>
        <pt x="64" y="279" on="1"/>
        <pt x="64" y="322" on="0"/>
        <pt x="84" y="391" on="0"/>
        <pt x="104" y="428" on="1"/>
        <pt x="40" y="428" on="1"/>
        <pt x="40" y="556" on="1"/>
        <pt x="333" y="556" on="1"/>
        <pt x="438" y="556" on="0"/>
        <pt x="572" y="481" on="0"/>
        <pt x="635" y="354" on="0"/>
        <pt x="635" y="275" on="1"/>
        <pt x="635" y="194" on="0"/>
        <pt x="561" y="66" on="0"/>
        <pt x="429" y="-7" on="0"/>
      </contour>
      <contour>
        <pt x="201" y="284" on="1"/>
        <pt x="201" y="240" on="0"/>
        <pt x="237" y="165" on="0"/>
        <pt x="301" y="120" on="0"/>
        <pt x="345" y="120" on="1"/>
        <pt x="418" y="120" on="0"/>
        <pt x="498" y="210" on="0"/>
        <pt x="498" y="280" on="1"/>
        <pt x="498" y="320" on="0"/>
        <pt x="470" y="388" on="0"/>
        <pt x="398" y="428" on="0"/>
        <pt x="333" y="428" on="1"/>
        <pt x="246" y="428" on="1"/>
        <pt x="222" y="391" on="0"/>
        <pt x="201" y="325" on="0"/>
      </contour>
    </TTGlyph>
    <TTGlyph name="uni05E2" xMin="16" yMin="-75" xMax="533" yMax="570">
      <contour>
        <pt x="70" y="-75" on="1"/>
        <pt x="28" y="50" on="1"/>
        <pt x="74" y="65" on="0"/>
        <pt x="150" y="92" on="0"/>
        <pt x="181" y="105" on="1"/>
        <pt x="146" y="215" on="0"/>
        <pt x="63" y="428" on="0"/>
        <pt x="16" y="528" on="1"/>
        <pt x="139" y="570" on="1"/>
        <pt x="184" y="468" on="0"/>
        <pt x="257" y="263" on="0"/>
        <pt x="287" y="159" on="1"/>
        <pt x="322" y="184" on="0"/>
        <pt x="343" y="215" on="1"/>
        <pt x="367" y="252" on="0"/>
        <pt x="390" y="337" on="0"/>
        <pt x="396" y="461" on="0"/>
        <pt x="395" y="555" on="1"/>
        <pt x="532" y="557" on="1"/>
        <pt x="533" y="457" on="0"/>
        <pt x="525" y="311" on="0"/>
        <pt x="492" y="196" on="0"/>
        <pt x="457" y="143" on="1"/>
        <pt x="423" y="91" on="0"/>
        <pt x="315" y="17" on="0"/>
        <pt x="165" y="-44" on="0"/>
      </contour>
    </TTGlyph>
    <TTGlyph name="uni05E3" xMin="33" yMin="-163" xMax="551" yMax="569">
      <contour>
        <pt x="414" y="-163" on="1"/>
        <pt x="414" y="279" on="1"/>
        <pt x="414" y="442" on="0"/>
        <pt x="280" y="442" on="1"/>
        <pt x="231" y="442" on="0"/>
        <pt x="170" y="380" on="0"/>
        <pt x="170" y="326" on="1"/>
        <pt x="170" y="275" on="0"/>
        <pt x="236" y="223" on="0"/>
        <pt x="288" y="219" on="1"/>
        <pt x="274" y="95" on="1"/>
        <pt x="204" y="98" on="0"/>
        <pt x="95" y="150" on="0"/>
        <pt x="33" y="250" on="0"/>
        <pt x="33" y="323" on="1"/>
        <pt x="33" y="399" on="0"/>
        <pt x="92" y="509" on="0"/>
        <pt x="200" y="569" on="0"/>
        <pt x="272" y="569" on="1"/>
        <pt x="405" y="569" on="0"/>
        <pt x="551" y="414" on="0"/>
        <pt x="551" y="279" on="1"/>
        <pt x="551" y="-163" on="1"/>
      </contour>
    </TTGlyph>
    <TTGlyph name="uni05E4" xMin="34" yMin="-14" xMax="571" yMax="571">
      <contour>
        <pt x="288" y="-14" on="1"/>
        <pt x="231" y="-14" on="0"/>
        <pt x="109" y="4" on="0"/>
        <pt x="47" y="30" on="1"/>
        <pt x="78" y="154" on="1"/>
        <pt x="138" y="129" on="0"/>
        <pt x="243" y="114" on="0"/>
        <pt x="288" y="114" on="1"/>
        <pt x="330" y="114" on="0"/>
        <pt x="395" y="157" on="0"/>
        <pt x="434" y="234" on="0"/>
        <pt x="434" y="283" on="1"/>
        <pt x="434" y="334" on="0"/>
        <pt x="391" y="405" on="0"/>
        <pt x="320" y="443" on="0"/>
        <pt x="278" y="443" on="1"/>
        <pt x="231" y="443" on="0"/>
        <pt x="158" y="409" on="0"/>
        <pt x="158" y="376" on="1"/>
        <pt x="158" y="345" on="0"/>
        <pt x="211" y="316" on="0"/>
        <pt x="253" y="315" on="1"/>
        <pt x="237" y="210" on="1"/>
        <pt x="180" y="213" on="0"/>
        <pt x="88" y="251" on="0"/>
        <pt x="34" y="328" on="0"/>
        <pt x="34" y="389" on="1"/>
        <pt x="34" y="449" on="0"/>
        <pt x="101" y="530" on="0"/>
        <pt x="216" y="571" on="0"/>
        <pt x="286" y="571" on="1"/>
        <pt x="370" y="571" on="0"/>
        <pt x="498" y="498" on="0"/>
        <pt x="571" y="369" on="0"/>
        <pt x="571" y="287" on="1"/>
        <pt x="571" y="205" on="0"/>
        <pt x="500" y="69" on="0"/>
        <pt x="373" y="-14" on="0"/>
      </contour>
    </TTGlyph>
    <TTGlyph name="uni05E5" xMin="24" yMin="-158" xMax="479" yMax="571">
      <contour>
        <pt x="138" y="-158" on="1"/>
        <pt x="138" y="150" on="1"/>
        <pt x="138" y="221" on="0"/>
        <pt x="114" y="335" on="0"/>
        <pt x="64" y="453" on="0"/>
        <pt x="24" y="526" on="1"/>
        <pt x="143" y="571" on="1"/>
        <pt x="185" y="497" on="0"/>
        <pt x="245" y="367" on="0"/>
        <pt x="260" y="296" on="1"/>
        <pt x="303" y="346" on="0"/>
        <pt x="338" y="477" on="0"/>
        <pt x="344" y="559" on="1"/>
        <pt x="479" y="541" on="1"/>
        <pt x="470" y="404" on="0"/>
        <pt x="369" y="203" on="0"/>
        <pt x="275" y="148" on="1"/>
        <pt x="275" y="-158" on="1"/>
      </contour>
    </TTGlyph>
    <TTGlyph name="uni05E6" xMin="21" yMin="0" xMax="524" yMax="569">
      <contour>
        <pt x="56" y="0" on="1"/>
        <pt x="56" y="128" on="1"/>
        <pt x="329" y="128" on="1"/>
        <pt x="304" y="157" on="0"/>
        <pt x="224" y="223" on="0"/>
        <pt x="192" y="261" on="1"/>
        <pt x="163" y="295" on="0"/>
        <pt x="122" y="349" on="0"/>
        <pt x="86" y="403" on="0"/>
        <pt x="47" y="470" on="0"/>
        <pt x="21" y="516" on="1"/>
        <pt x="134" y="569" on="1"/>
        <pt x="165" y="518" on="0"/>
        <pt x="212" y="444" on="0"/>
        <pt x="263" y="376" on="0"/>
        <pt x="299" y="334" on="1"/>
        <pt x="303" y="329" on="0"/>
        <pt x="307" y="325" on="1"/>
        <pt x="350" y="369" on="0"/>
        <pt x="393" y="478" on="0"/>
        <pt x="406" y="561" on="1"/>
        <pt x="524" y="533" on="1"/>
        <pt x="510" y="438" on="0"/>
        <pt x="444" y="301" on="0"/>
        <pt x="380" y="249" on="1"/>
        <pt x="427" y="204" on="0"/>
        <pt x="497" y="127" on="0"/>
        <pt x="497" y="84" on="1"/>
        <pt x="497" y="0" on="1"/>
      </contour>
    </TTGlyph>
    <TTGlyph name="uni05E7" xMin="46" yMin="-176" xMax="581" yMax="555">
      <contour>
        <pt x="294" y="-14" on="1"/>
        <pt x="257" y="99" on="1"/>
        <pt x="444" y="160" on="0"/>
        <pt x="444" y="314" on="1"/>
        <pt x="444" y="374" on="0"/>
        <pt x="376" y="427" on="0"/>
        <pt x="324" y="427" on="1"/>
        <pt x="46" y="427" on="1"/>
        <pt x="46" y="555" on="1"/>
        <pt x="324" y="555" on="1"/>
        <pt x="400" y="555" on="0"/>
        <pt x="516" y="498" on="0"/>
        <pt x="581" y="390" on="0"/>
        <pt x="581" y="314" on="1"/>
        <pt x="581" y="194" on="0"/>
        <pt x="428" y="27" on="0"/>
      </contour>
      <contour>
        <pt x="52" y="-176" on="1"/>
        <pt x="52" y="326" on="1"/>
        <pt x="189" y="326" on="1"/>
        <pt x="189" y="-176" on="1"/>
      </contour>
    </TTGlyph>
    <TTGlyph name="uni05E8" xMin="25" yMin="0" xMax="470" yMax="556">
      <contour>
        <pt x="333" y="0" on="1"/>
        <pt x="333" y="292" on="1"/>
        <pt x="333" y="352" on="0"/>
        <pt x="266" y="418" on="0"/>
        <pt x="200" y="418" on="1"/>
        <pt x="25" y="418" on="1"/>
        <pt x="25" y="556" on="1"/>
        <pt x="210" y="556" on="1"/>
        <pt x="332" y="556" on="0"/>
        <pt x="470" y="420" on="0"/>
        <pt x="470" y="302" on="1"/>
        <pt x="470" y="0" on="1"/>
      </contour>
    </TTGlyph>
    <TTGlyph name="uni05E9" xMin="35" yMin="-11" xMax="705" yMax="556">
      <contour>
        <pt x="361" y="-11" on="1"/>
        <pt x="279" y="-11" on="0"/>
        <pt x="164" y="53" on="0"/>
        <pt x="90" y="164" on="0"/>
        <pt x="50" y="309" on="0"/>
        <pt x="35" y="473" on="0"/>
        <pt x="35" y="556" on="1"/>
        <pt x="172" y="556" on="1"/>
        <pt x="172" y="488" on="0"/>
        <pt x="180" y="348" on="0"/>
        <pt x="193" y="287" on="1"/>
        <pt x="228" y="297" on="0"/>
        <pt x="273" y="342" on="0"/>
        <pt x="285" y="364" on="1"/>
        <pt x="298" y="391" on="0"/>
        <pt x="309" y="481" on="0"/>
        <pt x="309" y="556" on="1"/>
        <pt x="444" y="556" on="1"/>
        <pt x="444" y="478" on="0"/>
        <pt x="426" y="353" on="0"/>
        <pt x="402" y="309" on="1"/>
        <pt x="379" y="268" on="0"/>
        <pt x="292" y="203" on="0"/>
        <pt x="230" y="190" on="1"/>
        <pt x="250" y="156" on="0"/>
        <pt x="310" y="117" on="0"/>
        <pt x="352" y="117" on="1"/>
        <pt x="423" y="117" on="0"/>
        <pt x="507" y="180" on="0"/>
        <pt x="550" y="297" on="0"/>
        <pt x="565" y="458" on="0"/>
        <pt x="568" y="556" on="1"/>
        <pt x="705" y="556" on="1"/>
        <pt x="702" y="430" on="0"/>
        <pt x="670" y="222" on="0"/>
        <pt x="596" y="72" on="0"/>
        <pt x="464" y="-10" on="0"/>
      </contour>
    </TTGlyph>
    <TTGlyph name="uni05E9.forDagesh" xMin="35" yMin="-11" xMax="705" yMax="556">
      <contour>
        <pt x="361" y="-11" on="1"/>
        <pt x="279" y="-11" on="0"/>
        <pt x="164" y="53" on="0"/>
        <pt x="90" y="164" on="0"/>
        <pt x="50" y="309" on="0"/>
        <pt x="35" y="473" on="0"/>
        <pt x="35" y="556" on="1"/>
        <pt x="172" y="556" on="1"/>
        <pt x="172" y="488" on="0"/>
        <pt x="180" y="348" on="0"/>
        <pt x="193" y="287" on="1"/>
        <pt x="228" y="297" on="0"/>
        <pt x="273" y="342" on="0"/>
        <pt x="285" y="364" on="1"/>
        <pt x="298" y="391" on="0"/>
        <pt x="309" y="481" on="0"/>
        <pt x="309" y="556" on="1"/>
        <pt x="444" y="556" on="1"/>
        <pt x="444" y="478" on="0"/>
        <pt x="420" y="376" on="0"/>
        <pt x="398" y="341" on="1"/>
        <pt x="377" y="307" on="0"/>
        <pt x="280" y="242" on="0"/>
        <pt x="210" y="233" on="1"/>
        <pt x="229" y="181" on="0"/>
        <pt x="298" y="117" on="0"/>
        <pt x="352" y="117" on="1"/>
        <pt x="423" y="117" on="0"/>
        <pt x="507" y="180" on="0"/>
        <pt x="550" y="297" on="0"/>
        <pt x="565" y="458" on="0"/>
        <pt x="568" y="556" on="1"/>
        <pt x="705" y="556" on="1"/>
        <pt x="702" y="430" on="0"/>
        <pt x="670" y="222" on="0"/>
        <pt x="596" y="72" on="0"/>
        <pt x="464" y="-10" on="0"/>
      </contour>
    </TTGlyph>
    <TTGlyph name="uni05EA" xMin="39" yMin="0" xMax="612" yMax="556">
      <contour>
        <pt x="39" y="0" on="1"/>
        <pt x="39" y="132" on="1"/>
        <pt x="105" y="132" on="1"/>
        <pt x="101" y="175" on="0"/>
        <pt x="97" y="252" on="0"/>
        <pt x="99" y="289" on="1"/>
        <pt x="101" y="325" on="0"/>
        <pt x="113" y="395" on="0"/>
        <pt x="121" y="428" on="1"/>
        <pt x="53" y="428" on="1"/>
        <pt x="53" y="556" on="1"/>
        <pt x="343" y="556" on="1"/>
        <pt x="483" y="556" on="0"/>
        <pt x="612" y="411" on="0"/>
        <pt x="612" y="271" on="1"/>
        <pt x="612" y="0" on="1"/>
        <pt x="475" y="0" on="1"/>
        <pt x="475" y="271" on="1"/>
        <pt x="475" y="331" on="0"/>
        <pt x="452" y="400" on="0"/>
        <pt x="395" y="428" on="0"/>
        <pt x="343" y="428" on="1"/>
        <pt x="255" y="428" on="1"/>
        <pt x="247" y="390" on="0"/>
        <pt x="238" y="318" on="0"/>
        <pt x="236" y="283" on="1"/>
        <pt x="234" y="229" on="0"/>
        <pt x="245" y="99" on="0"/>
        <pt x="258" y="0" on="1"/>
      </contour>
    </TTGlyph>
    <TTGlyph name="uni05F3" xMin="21" yMin="336" xMax="224" yMax="613">
      <contour>
        <pt x="21" y="336" on="1"/>
        <pt x="81" y="613" on="1"/>
        <pt x="224" y="613" on="1"/>
        <pt x="137" y="336" on="1"/>
      </contour>
    </TTGlyph>
    <TTGlyph name="uni05F4" xMin="22" yMin="336" xMax="418" yMax="613">
      <contour>
        <pt x="214" y="336" on="1"/>
        <pt x="275" y="613" on="1"/>
        <pt x="418" y="613" on="1"/>
        <pt x="331" y="336" on="1"/>
      </contour>
      <contour>
        <pt x="22" y="336" on="1"/>
        <pt x="83" y="613" on="1"/>
        <pt x="225" y="613" on="1"/>
        <pt x="139" y="336" on="1"/>
      </contour>
    </TTGlyph>
    <TTGlyph name="uni20AA" xMin="47" yMin="0" xMax="742" yMax="556">
      <contour>
        <pt x="246" y="0" on="1"/>
        <pt x="246" y="331" on="1"/>
        <pt x="355" y="331" on="1"/>
        <pt x="355" y="137" on="1"/>
        <pt x="482" y="137" on="1"/>
        <pt x="555" y="137" on="0"/>
        <pt x="614" y="203" on="0"/>
        <pt x="614" y="281" on="1"/>
        <pt x="614" y="556" on="1"/>
        <pt x="742" y="556" on="1"/>
        <pt x="742" y="271" on="1"/>
        <pt x="742" y="135" on="0"/>
        <pt x="616" y="0" on="0"/>
        <pt x="497" y="0" on="1"/>
      </contour>
      <contour>
        <pt x="47" y="0" on="1"/>
        <pt x="47" y="556" on="1"/>
        <pt x="314" y="556" on="1"/>
        <pt x="432" y="556" on="0"/>
        <pt x="540" y="432" on="0"/>
        <pt x="540" y="313" on="1"/>
        <pt x="540" y="225" on="1"/>
        <pt x="431" y="225" on="1"/>
        <pt x="431" y="288" on="1"/>
        <pt x="431" y="359" on="0"/>
        <pt x="376" y="419" on="0"/>
        <pt x="307" y="419" on="1"/>
        <pt x="174" y="419" on="1"/>
        <pt x="174" y="0" on="1"/>
      </contour>
    </TTGlyph>
    <TTGlyph name="uni2196" xMin="57" yMin="67" xMax="548" yMax="556">
      <contour>
        <pt x="57" y="165" on="1"/>
        <pt x="57" y="556" on="1"/>
        <pt x="450" y="556" on="1"/>
        <pt x="450" y="423" on="1"/>
        <pt x="277" y="427" on="1"/>
        <pt x="548" y="157" on="1"/>
        <pt x="458" y="67" on="1"/>
        <pt x="184" y="340" on="1"/>
        <pt x="190" y="165" on="1"/>
      </contour>
    </TTGlyph>
    <TTGlyph name="uni2197" xMin="43" yMin="66" xMax="534" yMax="556">
      <contour>
        <pt x="134" y="66" on="1"/>
        <pt x="43" y="156" on="1"/>
        <pt x="314" y="427" on="1"/>
        <pt x="142" y="423" on="1"/>
        <pt x="142" y="556" on="1"/>
        <pt x="534" y="556" on="1"/>
        <pt x="534" y="164" on="1"/>
        <pt x="400" y="164" on="1"/>
        <pt x="407" y="340" on="1"/>
      </contour>
    </TTGlyph>
    <TTGlyph name="uni2198" xMin="105" yMin="0" xMax="534" yMax="462">
      <contour>
        <pt x="141" y="93" on="1"/>
        <pt x="263" y="123" on="1"/>
        <pt x="301" y="158" on="1"/>
        <pt x="248" y="195" on="1"/>
        <pt x="105" y="462" on="1"/>
        <pt x="308" y="316" on="1"/>
        <pt x="363" y="214" on="1"/>
        <pt x="401" y="249" on="1"/>
        <pt x="494" y="392" on="1"/>
        <pt x="534" y="183" on="1"/>
        <pt x="429" y="91" on="1"/>
        <pt x="451" y="50" on="1"/>
        <pt x="413" y="77" on="1"/>
        <pt x="326" y="0" on="1"/>
      </contour>
    </TTGlyph>
    <TTGlyph name="uni2199" xMin="94" yMin="50" xMax="482" yMax="462">
      <contour>
        <pt x="262" y="93" on="1"/>
        <pt x="262" y="141" on="1"/>
        <pt x="135" y="50" on="1"/>
        <pt x="208" y="184" on="1"/>
        <pt x="94" y="184" on="1"/>
        <pt x="94" y="249" on="1"/>
        <pt x="243" y="249" on="1"/>
        <pt x="279" y="317" on="1"/>
        <pt x="482" y="462" on="1"/>
        <pt x="339" y="196" on="1"/>
        <pt x="327" y="187" on="1"/>
        <pt x="323" y="83" on="1"/>
      </contour>
    </TTGlyph>
    <TTGlyph name="uniFB2A" xMin="35" yMin="-11" xMax="705" yMax="720">
      <component glyphName="uni05E9" x="0" y="0" flags="0x204"/>
      <component glyphName="uni05C1" x="713" y="0" flags="0x4"/>
    </TTGlyph>
    <TTGlyph name="uniFB2B" xMin="35" yMin="-11" xMax="705" yMax="720">
      <component glyphName="uni05E9" x="0" y="0" flags="0x204"/>
      <component glyphName="uni05C2" x="2" y="0" flags="0x4"/>
    </TTGlyph>
    <TTGlyph name="uniFB2C" xMin="35" yMin="-11" xMax="705" yMax="720">
      <component glyphName="uni05E9.forDagesh" x="0" y="0" flags="0x204"/>
      <component glyphName="uni05BC" x="385" y="57" flags="0x4"/>
      <component glyphName="uni05C1" x="713" y="0" flags="0x4"/>
    </TTGlyph>
    <TTGlyph name="uniFB2D" xMin="35" yMin="-11" xMax="705" yMax="720">
      <component glyphName="uni05E9.forDagesh" x="0" y="0" flags="0x204"/>
      <component glyphName="uni05BC" x="385" y="57" flags="0x4"/>
      <component glyphName="uni05C2" x="2" y="0" flags="0x4"/>
    </TTGlyph>
    <TTGlyph name="uniFB2E" xMin="42" yMin="-165" xMax="592" yMax="580">
      <component glyphName="uni05D0" x="0" y="0" flags="0x4"/>
      <component glyphName="uni05B7" x="322" y="0" flags="0x4"/>
    </TTGlyph>
    <TTGlyph name="uniFB2F" xMin="42" yMin="-267" xMax="592" yMax="580">
      <component glyphName="uni05D0" x="0" y="0" flags="0x4"/>
      <component glyphName="uni05B8" x="322" y="0" flags="0x4"/>
    </TTGlyph>
    <TTGlyph name="uniFB30" xMin="42" yMin="-15" xMax="592" yMax="580">
      <component glyphName="uni05D0.forDagesh" x="0" y="0" flags="0x4"/>
      <component glyphName="uni05BC" x="238" y="-126" flags="0x4"/>
    </TTGlyph>
    <TTGlyph name="uniFB31" xMin="35" yMin="0" xMax="518" yMax="556">
      <component glyphName="uni05D1" x="0" y="0" flags="0x204"/>
      <component glyphName="uni05BC" x="123" y="61" flags="0x4"/>
    </TTGlyph>
    <TTGlyph name="uniFB32" xMin="30" yMin="-12" xMax="347" yMax="567">
      <component glyphName="uni05D2" x="0" y="0" flags="0x4"/>
      <component glyphName="uni05BC" x="39" y="66" flags="0x4"/>
    </TTGlyph>
    <TTGlyph name="uniFB33" xMin="27" yMin="2" xMax="503" yMax="556">
      <component glyphName="uni05D3" x="0" y="0" flags="0x204"/>
      <component glyphName="uni05BC" x="111" y="34" flags="0x4"/>
    </TTGlyph>
    <TTGlyph name="uniFB34" xMin="46" yMin="0" xMax="568" yMax="556">
      <component glyphName="uni05D4" x="0" y="0" flags="0x204"/>
      <component glyphName="uni05BC" x="260" y="38" flags="0x4"/>
    </TTGlyph>
    <TTGlyph name="uniFB35" xMin="-13" yMin="0" xMax="270" yMax="563">
      <component glyphName="uni05D5" x="0" y="0" flags="0x204"/>
      <component glyphName="uni05BC" x="-4" y="34" flags="0x4"/>
    </TTGlyph>
    <TTGlyph name="uniFB36" xMin="-36" yMin="-21" xMax="332" yMax="556">
      <component glyphName="uni05D6" x="0" y="0" flags="0x204"/>
      <component glyphName="uni05BC" x="-27" y="52" flags="0x4"/>
    </TTGlyph>
    <TTGlyph name="uniFB38" xMin="45" yMin="-15" xMax="627" yMax="569">
      <component glyphName="uni05D8" x="0" y="0" flags="0x204"/>
      <component glyphName="uni05BC" x="286" y="64" flags="0x4"/>
    </TTGlyph>
    <TTGlyph name="uniFB39" xMin="4" yMin="157" xMax="300" yMax="566">
      <component glyphName="uni05D9" x="0" y="0" flags="0x204"/>
      <component glyphName="uni05BC" x="12" y="94" flags="0x4"/>
    </TTGlyph>
    <TTGlyph name="uniFB3A" xMin="33" yMin="-157" xMax="517" yMax="556">
      <component glyphName="uni05DA" x="0" y="0" flags="0x204"/>
      <component glyphName="uni05BC" x="125" y="46" flags="0x4"/>
    </TTGlyph>
    <TTGlyph name="uniFB3B" xMin="35" yMin="0" xMax="477" yMax="556">
      <component glyphName="uni05DB" x="0" y="0" flags="0x204"/>
      <component glyphName="uni05BC" x="120" y="61" flags="0x4"/>
    </TTGlyph>
    <TTGlyph name="uniFB3C" xMin="35" yMin="-19" xMax="500" yMax="707">
      <component glyphName="uni05DC" x="0" y="0" flags="0x204"/>
      <component glyphName="uni05BC" x="138" y="71" flags="0x4"/>
    </TTGlyph>
    <TTGlyph name="uniFB3E" xMin="33" yMin="-13" xMax="650" yMax="566">
      <component glyphName="uni05DE" x="0" y="0" flags="0x204"/>
      <component glyphName="uni05BC" x="330" y="59" flags="0x4"/>
    </TTGlyph>
    <TTGlyph name="uniFB40" xMin="30" yMin="0" xMax="326" yMax="564">
      <component glyphName="uni05E0" x="0" y="0" flags="0x204"/>
      <component glyphName="uni05BC" x="39" y="61" flags="0x4"/>
    </TTGlyph>
    <TTGlyph name="uniFB41" xMin="40" yMin="-7" xMax="635" yMax="556">
      <component glyphName="uni05E1" x="0" y="0" flags="0x204"/>
      <component glyphName="uni05BC" x="300" y="66" flags="0x4"/>
    </TTGlyph>
    <TTGlyph name="uniFB43" xMin="33" yMin="-163" xMax="551" yMax="569">
      <component glyphName="uni05E3" x="0" y="0" flags="0x4"/>
      <component glyphName="uni05BC" x="283" y="29" flags="0x4"/>
    </TTGlyph>
    <TTGlyph name="uniFB44" xMin="34" yMin="-14" xMax="571" yMax="571">
      <component glyphName="uni05E4" x="0" y="0" flags="0x4"/>
      <component glyphName="uni05BC" x="282" y="62" flags="0x4"/>
    </TTGlyph>
    <TTGlyph name="uniFB46" xMin="21" yMin="0" xMax="524" yMax="569">
      <component glyphName="uni05E6" x="0" y="0" flags="0x4"/>
      <component glyphName="uni05BC" x="52" y="16" flags="0x4"/>
    </TTGlyph>
    <TTGlyph name="uniFB47" xMin="46" yMin="-176" xMax="581" yMax="555">
      <component glyphName="uni05E7" x="0" y="0" flags="0x4"/>
      <component glyphName="uni05BC" x="257" y="64" flags="0x4"/>
    </TTGlyph>
    <TTGlyph name="uniFB48" xMin="25" yMin="0" xMax="470" yMax="556">
      <component glyphName="uni05E8" x="0" y="0" flags="0x204"/>
      <component glyphName="uni05BC" x="129" y="35" flags="0x4"/>
    </TTGlyph>
    <TTGlyph name="uniFB49" xMin="35" yMin="-11" xMax="705" yMax="556">
      <component glyphName="uni05E9.forDagesh" x="0" y="0" flags="0x204"/>
      <component glyphName="uni05BC" x="385" y="57" flags="0x4"/>
    </TTGlyph>
    <TTGlyph name="uniFB4A" xMin="39" yMin="0" xMax="612" yMax="556">
      <component glyphName="uni05EA" x="0" y="0" flags="0x204"/>
      <component glyphName="uni05BC" x="304" y="43" flags="0x4"/>
    </TTGlyph>
    <TTGlyph name="uniFB4B" xMin="30" yMin="0" xMax="270" yMax="720">
      <component glyphName="uni05D5" x="0" y="0" flags="0x204"/>
      <component glyphName="uni05B9" x="175" y="0" flags="0x4"/>
    </TTGlyph>
    <TTGlyph name="zero" xMin="33" yMin="-22" xMax="517" yMax="622">
      <contour>
        <pt x="275" y="-22" on="1"/>
        <pt x="204" y="-22" on="0"/>
        <pt x="95" y="61" on="0"/>
        <pt x="33" y="207" on="0"/>
        <pt x="33" y="303" on="1"/>
        <pt x="33" y="397" on="0"/>
        <pt x="96" y="541" on="0"/>
        <pt x="206" y="622" on="0"/>
        <pt x="275" y="622" on="1"/>
        <pt x="344" y="622" on="0"/>
        <pt x="454" y="541" on="0"/>
        <pt x="517" y="397" on="0"/>
        <pt x="517" y="303" on="1"/>
        <pt x="517" y="206" on="0"/>
        <pt x="453" y="60" on="0"/>
        <pt x="344" y="-22" on="0"/>
      </contour>
      <contour>
        <pt x="275" y="115" on="1"/>
        <pt x="324" y="115" on="0"/>
        <pt x="389" y="211" on="0"/>
        <pt x="389" y="303" on="1"/>
        <pt x="389" y="392" on="0"/>
        <pt x="323" y="485" on="0"/>
        <pt x="275" y="485" on="1"/>
        <pt x="226" y="485" on="0"/>
        <pt x="160" y="391" on="0"/>
        <pt x="160" y="303" on="1"/>
        <pt x="160" y="210" on="0"/>
        <pt x="226" y="115" on="0"/>
      </contour>
    </TTGlyph>
</ttFont>
